{
  "materials": [
    {
      "name": "Std_huawei_Camera_Bin_jpgLightingMap_20180102设备创建_独立设备_huawei_Camera_Bin_1.bmp",
      "occlusionTexture": {
        "index": 0,
        "texCoord": 1
      },
      "pbrMetallicRoughness": {
        "baseColorTexture": {
          "index": 1,
          "texCoord": 0
        },
        "baseColorFactor": [
          1.0,
          1.0,
          1.0,
          1.0
        ],
        "metallicFactor": 0,
        "roughnessFactor": 0.95
      },
      "alphaMode": "OPAQUE"
    },
    {
      "name": "Std_huawei_Camera_Bin_jpg",
      "pbrMetallicRoughness": {
        "baseColorTexture": {
          "index": 1,
          "texCoord": 0
        },
        "baseColorFactor": [
          1.0,
          1.0,
          1.0,
          1.0
        ],
        "metallicFactor": 0,
        "roughnessFactor": 0.95
      },
      "alphaMode": "OPAQUE"
    },
    {
      "name": "Std_boli_tga_alpha",
      "pbrMetallicRoughness": {
        "baseColorTexture": {
          "index": 2,
          "texCoord": 0
        },
        "baseColorFactor": [
          1.0,
          1.0,
          1.0,
          1.0
        ],
        "metallicFactor": 0,
        "roughnessFactor": 0.400000036
      },
      "alphaMode": "BLEND"
    }
  ],
  "images": [
    {
      "uri": "7SD7782O13UDQY64W6SYFDURJ6SM7UW53.jpg"
    },
    {
      "uri": "1KIH6VT38N2G378594UMQ26TFP8EFZ24W.jpg"
    },
    {
      "uri": "76IZ6QQEP3IR7UO2ZNCC37WT7W24EJ1D8.png"
    }
  ],
  "textures": [
    {
      "name": "LightingMap_20180102设备创建_独立设备_huawei_Camera_Bin_1_f_bmp.jpg",
      "sampler": 0,
      "source": 0
    },
    {
      "name": "smd_1.jpg",
      "sampler": 0,
      "source": 1
    },
    {
      "name": "smd_3_f_tga.png",
      "sampler": 0,
      "source": 2
    }
  ],
  "meshes": [
    {
      "name": "Lo-BODY_01",
      "primitives": [
        {
          "material": 0,
          "mode": 4,
          "indices": 0,
          "attributes": {
            "COLOR_0": 3,
            "NORMAL": 2,
            "POSITION": 1,
            "TEXCOORD_0": 4,
            "TEXCOORD_1": 5
          }
        }
      ]
    },
    {
      "name": "Lo-EEMENT_01",
      "primitives": [
        {
          "material": 1,
          "mode": 4,
          "indices": 6,
          "attributes": {
            "NORMAL": 8,
            "POSITION": 7,
            "TEXCOORD_0": 9,
            "TEXCOORD_1": 10
          }
        }
      ]
    },
    {
      "name": "Lo-ELEMENT_01",
      "primitives": [
        {
          "material": 2,
          "mode": 4,
          "indices": 11,
          "attributes": {
            "NORMAL": 13,
            "POSITION": 12,
            "TEXCOORD_0": 14,
            "TEXCOORD_1": 15
          }
        }
      ]
    }
  ],
  "buffers": [
    {
      "byteLength": 70603,
      "uri": "TCX3UQCJ8OIUYC53ZZ0QZZKC30NGO76IF.bin"
    }
  ],
  "bufferViews": [
    {
      "buffer": 0,
      "target": 34963,
      "byteLength": 3442,
      "byteOffset": 0
    },
    {
      "buffer": 0,
      "target": 34962,
      "byteLength": 9540,
      "byteOffset": 3504
    },
    {
      "buffer": 0,
      "target": 34962,
      "byteLength": 9660,
      "byteOffset": 13044
    },
    {
      "buffer": 0,
      "target": 34962,
      "byteLength": 12736,
      "byteOffset": 22736
    },
    {
      "buffer": 0,
      "target": 34962,
      "byteLength": 6480,
      "byteOffset": 35472
    },
    {
      "buffer": 0,
      "target": 34962,
      "byteLength": 6328,
      "byteOffset": 41960
    },
    {
      "buffer": 0,
      "target": 34963,
      "byteLength": 974,
      "byteOffset": 48288
    },
    {
      "buffer": 0,
      "target": 34962,
      "byteLength": 1632,
      "byteOffset": 49284
    },
    {
      "buffer": 0,
      "target": 34962,
      "byteLength": 1728,
      "byteOffset": 50916
    },
    {
      "buffer": 0,
      "target": 34962,
      "byteLength": 1048,
      "byteOffset": 52628
    },
    {
      "buffer": 0,
      "target": 34962,
      "byteLength": 1216,
      "byteOffset": 53676
    },
    {
      "buffer": 0,
      "target": 34963,
      "byteLength": 3234,
      "byteOffset": 54810
    },
    {
      "buffer": 0,
      "target": 34962,
      "byteLength": 3612,
      "byteOffset": 58044
    },
    {
      "buffer": 0,
      "target": 34962,
      "byteLength": 3396,
      "byteOffset": 61584
    },
    {
      "buffer": 0,
      "target": 34962,
      "byteLength": 2336,
      "byteOffset": 64980
    },
    {
      "buffer": 0,
      "target": 34962,
      "byteLength": 2280,
      "byteOffset": 67324
    }
  ],
  "accessors": [
    {
      "componentType": 5123,
      "type": "SCALAR",
      "bufferView": 0,
      "byteOffset": 0,
      "byteType": 243,
      "count": 1721
    },
    {
      "componentType": 5126,
      "type": "VEC3",
      "bufferView": 1,
      "byteOffset": 0,
      "byteType": 1359,
      "count": 795,
      "min": [
        -7.14242553710938,
        -7.14242553710938,
        5.48772811889648
      ],
      "max": [
        7.14242553710938,
        7.14242553710938,
        10.9877281188965
      ]
    },
    {
      "componentType": 5126,
      "type": "VEC3",
      "bufferView": 2,
      "byteOffset": 0,
      "byteType": 1841,
      "count": 805
    },
    {
      "componentType": 5126,
      "type": "VEC4",
      "bufferView": 3,
      "byteOffset": 0,
      "byteType": 1859,
      "count": 796
    },
    {
      "componentType": 5126,
      "type": "VEC2",
      "bufferView": 4,
      "byteOffset": 0,
      "byteType": 1582,
      "count": 810
    },
    {
      "componentType": 5126,
      "type": "VEC2",
      "bufferView": 5,
      "byteOffset": 0,
      "byteType": 343,
      "count": 791
    },
    {
      "componentType": 5123,
      "type": "SCALAR",
      "bufferView": 6,
      "byteOffset": 0,
      "byteType": 1959,
      "count": 487
    },
    {
      "componentType": 5126,
      "type": "VEC3",
      "bufferView": 7,
      "byteOffset": 0,
      "byteType": 1483,
      "count": 136,
      "min": [
        -3.872150182724,
        -3.93188428878784,
        -3.99253988265991
      ],
      "max": [
        3.87215065956116,
        3.93188428878784,
        0.693297386169434
      ]
    },
    {
      "componentType": 5126,
      "type": "VEC3",
      "bufferView": 8,
      "byteOffset": 0,
      "byteType": 1376,
      "count": 144
    },
    {
      "componentType": 5126,
      "type": "VEC2",
      "bufferView": 9,
      "byteOffset": 0,
      "byteType": 1929,
      "count": 131
    },
    {
      "componentType": 5126,
      "type": "VEC2",
      "bufferView": 10,
      "byteOffset": 0,
      "byteType": 743,
      "count": 152
    },
    {
      "componentType": 5123,
      "type": "SCALAR",
      "bufferView": 11,
      "byteOffset": 0,
      "byteType": 859,
      "count": 1617
    },
    {
      "componentType": 5126,
      "type": "VEC3",
      "bufferView": 12,
      "byteOffset": 0,
      "byteType": 523,
      "count": 301,
      "min": [
        -5.0,
        -5.0,
        -5.0
      ],
      "max": [
        5.0,
        5.0,
        0.487727165222168
      ]
    },
    {
      "componentType": 5126,
      "type": "VEC3",
      "bufferView": 13,
      "byteOffset": 0,
      "byteType": 1971,
      "count": 283
    },
    {
      "componentType": 5126,
      "type": "VEC2",
      "bufferView": 14,
      "byteOffset": 0,
      "byteType": 541,
      "count": 292
    },
    {
      "componentType": 5126,
      "type": "VEC2",
      "bufferView": 15,
      "byteOffset": 0,
      "byteType": 765,
      "count": 285
    }
  ],
  "nodes": [
    {
      "name": "RootNode",
      "translation": [
        0.0,
        0.0,
        0.0
      ],
      "rotation": [
        0.0,
        0.0,
        0.0,
        1.0
      ],
      "scale": [
        1.0,
        1.0,
        1.0
      ],
      "children": [
        1,
        2,
        3
      ]
    },
    {
      "name": "Lo-BODY_01",
      "translation": [
        0.0,
        0.0,
        2.39876185581522E-09
      ],
      "rotation": [
        -0.70710676908493,
        0.0,
        0.0,
        0.70710676908493
      ],
      "scale": [
        0.00999999977648258,
        0.00999999977648258,
        0.00999999977648258
      ],
      "mesh": 0
    },
    {
      "name": "Lo-ELEMENT_01",
      "translation": [
        0.0,
        0.0500000007450581,
        -2.18556686637505E-10
      ],
      "rotation": [
        -0.70710676908493,
        0.0,
        0.0,
        0.70710676908493
      ],
      "scale": [
        0.00999999977648258,
        0.00999999977648258,
        0.00999999977648258
      ],
      "mesh": 2
    },
    {
      "name": "Lo-EEMENT_01",
      "translation": [
        0.0,
        0.0548074133694172,
        2.39570829840829E-09
      ],
      "rotation": [
        -0.70710676908493,
        0.0,
        0.0,
        0.70710676908493
      ],
      "scale": [
        0.00999999977648258,
        0.00999999977648258,
        0.00999999977648258
      ],
      "mesh": 1
    }
  ],
  "asset": {
    "generator": "FBX2glTF",
    "version": "2.0"
  },
  "scene": 0,
  "scenes": [
    {
      "name": "Root Scene",
      "nodes": [
        0
      ]
    }
  ],
  "samplers": [
    {}
  ]
}
