{"asset":{"version":"2.0","generator":"babylon.js glTF exporter for 3ds max 2018 v1.3.33"},"scene":0,"scenes":[{"nodes":[0,1,2,3,4,5,6,7,8,9,10,11,12,13,14,15,16,17,18,19,20,21,22],"extensions":{}}],"nodes":[{"mesh":0,"translation":[-377.9453,19.585907,3986.25732],"rotation":[0.0,0.238210469,0.0,0.9712135],"scale":[0.99999994,1.0,0.99999994],"name":"Loft014"},{"mesh":1,"translation":[-378.703125,5.33505249,4025.61133],"rotation":[0.0,0.238210455,0.0,0.9712135],"scale":[0.99343276,1.02893043,0.99343276],"name":"图形010"},{"mesh":2,"translation":[-396.4131,0.375213623,4039.45361],"rotation":[0.0,0.0,0.0,1.0],"scale":[1.0,1.0,1.0],"name":"Rectangle002"},{"mesh":3,"translation":[-396.6123,5.721161,3959.211],"rotation":[0.0,0.238210455,0.0,0.9712135],"scale":[0.99343276,1.02893043,0.99343276],"name":"对象005"},{"mesh":4,"translation":[-396.389648,5.72018433,4002.78125],"rotation":[0.0,0.238210469,0.0,0.9712135],"scale":[0.99999994,1.0,0.99999994],"name":"Loft012"},{"mesh":5,"translation":[-161.665039,106.32785,106.461922],"rotation":[0.0,0.238210455,0.0,0.9712135],"scale":[0.99343276,1.02893043,0.99343276],"name":"对象001"},{"mesh":6,"translation":[-341.342773,3.879242,2983.28442],"rotation":[0.0,0.238210469,0.0,0.9712135],"scale":[0.99999994,1.0,0.99999994],"name":"对象011"},{"mesh":7,"translation":[-341.3247,-0.7142029,2983.28223],"rotation":[0.0,0.238210469,0.0,0.9712135],"scale":[0.99999994,1.0,0.99999994],"name":"对象012"},{"mesh":8,"translation":[-293.753052,3.87940216,2983.82983],"rotation":[0.0,0.238210469,0.0,0.9712135],"scale":[0.99999994,1.0,0.99999994],"name":"对象013"},{"mesh":9,"translation":[-293.735229,-0.713999748,2983.828],"rotation":[0.0,0.238210469,0.0,0.9712135],"scale":[0.99999994,1.0,0.99999994],"name":"对象014"},{"mesh":10,"translation":[-82.67084,3.87946,1023.09937],"rotation":[0.0,0.238210469,0.0,0.9712135],"scale":[0.99999994,1.0,0.99999994],"name":"对象015"},{"mesh":11,"translation":[-82.63855,-0.58570385,1023.09692],"rotation":[0.0,0.238210469,0.0,0.9712135],"scale":[0.99999994,1.0,0.99999994],"name":"对象016"},{"mesh":12,"translation":[-132.128387,3.879242,1019.88916],"rotation":[0.0,0.238210469,0.0,0.9712135],"scale":[0.99999994,1.0,0.99999994],"name":"对象017"},{"mesh":13,"translation":[-132.104065,-0.7142029,1019.89966],"rotation":[0.0,0.238210469,0.0,0.9712135],"scale":[0.99999994,1.0,0.99999994],"name":"对象018"},{"mesh":14,"translation":[-55.03192,3.87951279,-934.8801],"rotation":[0.0,0.238210469,0.0,0.9712135],"scale":[0.99999994,1.0,0.99999994],"name":"对象019"},{"mesh":15,"translation":[-55.0037231,-0.71388936,-934.8767],"rotation":[0.0,0.238210469,0.0,0.9712135],"scale":[0.99999994,1.0,0.99999994],"name":"对象020"},{"mesh":16,"translation":[-104.107147,3.8792417,-937.822],"rotation":[0.0,0.238210469,0.0,0.9712135],"scale":[0.99999994,1.0,0.99999994],"name":"对象021"},{"mesh":17,"translation":[-104.129333,-0.7142029,-937.8318],"rotation":[0.0,0.238210469,0.0,0.9712135],"scale":[0.99999994,1.0,0.99999994],"name":"对象022"},{"mesh":18,"translation":[-287.182129,3.87956142,-2892.62476],"rotation":[0.0,0.238210469,0.0,0.9712135],"scale":[0.99999994,1.0,0.99999994],"name":"对象023"},{"mesh":19,"translation":[-287.15686,-0.713840961,-2892.635],"rotation":[0.0,0.238210469,0.0,0.9712135],"scale":[0.99999994,1.0,0.99999994],"name":"对象024"},{"mesh":20,"translation":[-335.4248,3.87924671,-2895.02515],"rotation":[0.0,0.238210469,0.0,0.9712135],"scale":[0.99999994,1.0,0.99999994],"name":"对象025"},{"mesh":21,"translation":[-335.409424,-0.7142029,-2895.02124],"rotation":[0.0,0.238210469,0.0,0.9712135],"scale":[0.99999994,1.0,0.99999994],"name":"对象026"},{"translation":[0.0,0.0,0.0],"rotation":[0.0,0.0,0.0,1.0],"scale":[1.0,1.0,1.0],"name":"Default light"}],"meshes":[{"primitives":[{"attributes":{"POSITION":1,"NORMAL":2,"TEXCOORD_0":3},"indices":0,"mode":4,"material":0}],"name":"Loft014"},{"primitives":[{"attributes":{"POSITION":5,"NORMAL":6,"TEXCOORD_0":7},"indices":4,"mode":4,"material":1}],"name":"图形010"},{"primitives":[{"attributes":{"POSITION":9,"NORMAL":10,"TEXCOORD_0":11},"indices":8,"mode":4,"material":2},{"attributes":{"POSITION":13,"NORMAL":14,"TEXCOORD_0":15},"indices":12,"mode":4,"material":0}],"name":"Rectangle002"},{"primitives":[{"attributes":{"POSITION":17,"NORMAL":18,"TEXCOORD_0":19},"indices":16,"mode":4,"material":3}],"name":"对象005"},{"primitives":[{"attributes":{"POSITION":21,"NORMAL":22,"TEXCOORD_0":23},"indices":20,"mode":4,"material":0}],"name":"Loft012"},{"primitives":[{"attributes":{"POSITION":25,"NORMAL":26,"TEXCOORD_0":27},"indices":24,"mode":4,"material":4}],"name":"对象001"},{"primitives":[{"attributes":{"POSITION":29,"NORMAL":30,"TEXCOORD_0":31},"indices":28,"mode":4,"material":0}],"name":"对象011"},{"primitives":[{"attributes":{"POSITION":33,"NORMAL":34,"TEXCOORD_0":35},"indices":32,"mode":4,"material":0}],"name":"对象012"},{"primitives":[{"attributes":{"POSITION":37,"NORMAL":38,"TEXCOORD_0":39},"indices":36,"mode":4,"material":0}],"name":"对象013"},{"primitives":[{"attributes":{"POSITION":41,"NORMAL":42,"TEXCOORD_0":43},"indices":40,"mode":4,"material":0}],"name":"对象014"},{"primitives":[{"attributes":{"POSITION":45,"NORMAL":46,"TEXCOORD_0":47},"indices":44,"mode":4,"material":0}],"name":"对象015"},{"primitives":[{"attributes":{"POSITION":49,"NORMAL":50,"TEXCOORD_0":51},"indices":48,"mode":4,"material":0}],"name":"对象016"},{"primitives":[{"attributes":{"POSITION":53,"NORMAL":54,"TEXCOORD_0":55},"indices":52,"mode":4,"material":0}],"name":"对象017"},{"primitives":[{"attributes":{"POSITION":57,"NORMAL":58,"TEXCOORD_0":59},"indices":56,"mode":4,"material":0}],"name":"对象018"},{"primitives":[{"attributes":{"POSITION":61,"NORMAL":62,"TEXCOORD_0":63},"indices":60,"mode":4,"material":0}],"name":"对象019"},{"primitives":[{"attributes":{"POSITION":65,"NORMAL":66,"TEXCOORD_0":67},"indices":64,"mode":4,"material":0}],"name":"对象020"},{"primitives":[{"attributes":{"POSITION":69,"NORMAL":70,"TEXCOORD_0":71},"indices":68,"mode":4,"material":0}],"name":"对象021"},{"primitives":[{"attributes":{"POSITION":73,"NORMAL":74,"TEXCOORD_0":75},"indices":72,"mode":4,"material":0}],"name":"对象022"},{"primitives":[{"attributes":{"POSITION":77,"NORMAL":78,"TEXCOORD_0":79},"indices":76,"mode":4,"material":0}],"name":"对象023"},{"primitives":[{"attributes":{"POSITION":81,"NORMAL":82,"TEXCOORD_0":83},"indices":80,"mode":4,"material":0}],"name":"对象024"},{"primitives":[{"attributes":{"POSITION":85,"NORMAL":86,"TEXCOORD_0":87},"indices":84,"mode":4,"material":0}],"name":"对象025"},{"primitives":[{"attributes":{"POSITION":89,"NORMAL":90,"TEXCOORD_0":91},"indices":88,"mode":4,"material":0}],"name":"对象026"}],"accessors":[{"bufferView":0,"componentType":5123,"count":22980,"type":"SCALAR","name":"accessorIndices"},{"bufferView":1,"componentType":5126,"count":22980,"max":[54.07373,14.1773605,65.34448],"min":[-79.4189453,-8.522915,-78.1252441],"type":"VEC3","name":"accessorPositions"},{"bufferView":1,"byteOffset":275760,"componentType":5126,"count":22980,"type":"VEC3","name":"accessorNormals"},{"bufferView":2,"componentType":5126,"count":22980,"type":"VEC2","name":"accessorUVs"},{"bufferView":0,"byteOffset":45960,"componentType":5123,"count":189,"type":"SCALAR","name":"accessorIndices"},{"bufferView":1,"byteOffset":551520,"componentType":5126,"count":189,"max":[40.5180664,-4.81999731,73.0],"min":[-78.67212,-4.8205905,-77.81836],"type":"VEC3","name":"accessorPositions"},{"bufferView":1,"byteOffset":553788,"componentType":5126,"count":189,"type":"VEC3","name":"accessorNormals"},{"bufferView":2,"byteOffset":183840,"componentType":5126,"count":189,"type":"VEC2","name":"accessorUVs"},{"bufferView":0,"byteOffset":46340,"componentType":5123,"count":96,"type":"SCALAR","name":"accessorIndices"},{"bufferView":1,"byteOffset":556056,"componentType":5126,"count":96,"max":[16.5006714,0.20010376,64.02295],"min":[-16.51712,0.199859619,-74.93213],"type":"VEC3","name":"accessorPositions"},{"bufferView":1,"byteOffset":557208,"componentType":5126,"count":96,"type":"VEC3","name":"accessorNormals"},{"bufferView":2,"byteOffset":185352,"componentType":5126,"count":96,"type":"VEC2","name":"accessorUVs"},{"bufferView":0,"byteOffset":46532,"componentType":5123,"count":432,"type":"SCALAR","name":"accessorIndices"},{"bufferView":1,"byteOffset":558360,"componentType":5126,"count":432,"max":[16.71756,0.20010376,64.23486],"min":[-16.7171326,-9.15527344E-05,-75.13501],"type":"VEC3","name":"accessorPositions"},{"bufferView":1,"byteOffset":563544,"componentType":5126,"count":432,"type":"VEC3","name":"accessorNormals"},{"bufferView":2,"byteOffset":186120,"componentType":5126,"count":432,"type":"VEC2","name":"accessorUVs"},{"bufferView":0,"byteOffset":47396,"componentType":5123,"count":1989,"type":"SCALAR","name":"accessorIndices"},{"bufferView":1,"byteOffset":568728,"componentType":5126,"count":1989,"max":[35.9880371,5.195665,23.73999],"min":[-35.9890137,-5.19584227,-23.73877],"type":"VEC3","name":"accessorPositions"},{"bufferView":1,"byteOffset":592596,"componentType":5126,"count":1989,"type":"VEC3","name":"accessorNormals"},{"bufferView":2,"byteOffset":189576,"componentType":5126,"count":1989,"type":"VEC2","name":"accessorUVs"},{"bufferView":0,"byteOffset":51376,"componentType":5123,"count":324,"type":"SCALAR","name":"accessorIndices"},{"bufferView":1,"byteOffset":616464,"componentType":5126,"count":324,"max":[50.4892578,5.34483051,51.519043],"min":[-50.4885254,-5.344852,-51.5192871],"type":"VEC3","name":"accessorPositions"},{"bufferView":1,"byteOffset":620352,"componentType":5126,"count":324,"type":"VEC3","name":"accessorNormals"},{"bufferView":2,"byteOffset":205488,"componentType":5126,"count":324,"type":"VEC2","name":"accessorUVs"},{"bufferView":0,"byteOffset":52024,"componentType":5125,"count":511740,"type":"SCALAR","name":"accessorIndices"},{"bufferView":1,"byteOffset":624240,"componentType":5126,"count":511740,"max":[2536.797,202.428223,3906.15747],"min":[-2536.798,-202.428162,-3906.15576],"type":"VEC3","name":"accessorPositions"},{"bufferView":1,"byteOffset":6765120,"componentType":5126,"count":511740,"type":"VEC3","name":"accessorNormals"},{"bufferView":2,"byteOffset":208080,"componentType":5126,"count":511740,"type":"VEC2","name":"accessorUVs"},{"bufferView":0,"byteOffset":2098984,"componentType":5123,"count":33045,"type":"SCALAR","name":"accessorIndices"},{"bufferView":1,"byteOffset":12906000,"componentType":5126,"count":33045,"max":[530.1997,5.130249,837.74],"min":[-530.1997,-5.130249,-837.74],"type":"VEC3","name":"accessorPositions"},{"bufferView":1,"byteOffset":13302540,"componentType":5126,"count":33045,"type":"VEC3","name":"accessorNormals"},{"bufferView":2,"byteOffset":4302000,"componentType":5126,"count":33045,"type":"VEC2","name":"accessorUVs"},{"bufferView":0,"byteOffset":2165076,"componentType":5123,"count":16977,"type":"SCALAR","name":"accessorIndices"},{"bufferView":1,"byteOffset":13699080,"componentType":5126,"count":16977,"max":[529.4828,1.4586792,837.3804],"min":[-529.4829,-1.4586792,-837.3799],"type":"VEC3","name":"accessorPositions"},{"bufferView":1,"byteOffset":13902804,"componentType":5126,"count":16977,"type":"VEC3","name":"accessorNormals"},{"bufferView":2,"byteOffset":4566360,"componentType":5126,"count":16977,"type":"VEC2","name":"accessorUVs"},{"bufferView":0,"byteOffset":2199032,"componentType":5123,"count":14514,"type":"SCALAR","name":"accessorIndices"},{"bufferView":1,"byteOffset":14106528,"componentType":5126,"count":14514,"max":[532.125366,5.13026047,837.350342],"min":[-532.125244,-5.13026047,-837.3501],"type":"VEC3","name":"accessorPositions"},{"bufferView":1,"byteOffset":14280696,"componentType":5126,"count":14514,"type":"VEC3","name":"accessorNormals"},{"bufferView":2,"byteOffset":4702176,"componentType":5126,"count":14514,"type":"VEC2","name":"accessorUVs"},{"bufferView":0,"byteOffset":2228060,"componentType":5123,"count":10803,"type":"SCALAR","name":"accessorIndices"},{"bufferView":1,"byteOffset":14454864,"componentType":5126,"count":10803,"max":[531.4225,1.45868683,836.9695],"min":[-531.4225,-1.45868683,-836.9697],"type":"VEC3","name":"accessorPositions"},{"bufferView":1,"byteOffset":14584500,"componentType":5126,"count":10803,"type":"VEC3","name":"accessorNormals"},{"bufferView":2,"byteOffset":4818288,"componentType":5126,"count":10803,"type":"VEC2","name":"accessorUVs"},{"bufferView":0,"byteOffset":2249668,"componentType":5123,"count":9348,"type":"SCALAR","name":"accessorIndices"},{"bufferView":1,"byteOffset":14714136,"componentType":5126,"count":9348,"max":[576.815735,5.13026142,810.7965],"min":[-576.815552,-5.130262,-810.7964],"type":"VEC3","name":"accessorPositions"},{"bufferView":1,"byteOffset":14826312,"componentType":5126,"count":9348,"type":"VEC3","name":"accessorNormals"},{"bufferView":2,"byteOffset":4904712,"componentType":5126,"count":9348,"type":"VEC2","name":"accessorUVs"},{"bufferView":0,"byteOffset":2268364,"componentType":5123,"count":7878,"type":"SCALAR","name":"accessorIndices"},{"bufferView":1,"byteOffset":14938488,"componentType":5126,"count":7878,"max":[576.105164,1.5869267,810.4254],"min":[-576.1049,-1.5869267,-810.425659],"type":"VEC3","name":"accessorPositions"},{"bufferView":1,"byteOffset":15033024,"componentType":5126,"count":7878,"type":"VEC3","name":"accessorNormals"},{"bufferView":2,"byteOffset":4979496,"componentType":5126,"count":7878,"type":"VEC2","name":"accessorUVs"},{"bufferView":0,"byteOffset":2284120,"componentType":5123,"count":26820,"type":"SCALAR","name":"accessorIndices"},{"bufferView":1,"byteOffset":15127560,"componentType":5126,"count":26820,"max":[578.318542,5.130249,813.6332],"min":[-578.318542,-5.130249,-813.6335],"type":"VEC3","name":"accessorPositions"},{"bufferView":1,"byteOffset":15449400,"componentType":5126,"count":26820,"type":"VEC3","name":"accessorNormals"},{"bufferView":2,"byteOffset":5042520,"componentType":5126,"count":26820,"type":"VEC2","name":"accessorUVs"},{"bufferView":0,"byteOffset":2337760,"componentType":5123,"count":13716,"type":"SCALAR","name":"accessorIndices"},{"bufferView":1,"byteOffset":15771240,"componentType":5126,"count":13716,"max":[577.63324,1.4586792,813.247437],"min":[-577.633057,-1.4586792,-813.247559],"type":"VEC3","name":"accessorPositions"},{"bufferView":1,"byteOffset":15935832,"componentType":5126,"count":13716,"type":"VEC3","name":"accessorNormals"},{"bufferView":2,"byteOffset":5257080,"componentType":5126,"count":13716,"type":"VEC2","name":"accessorUVs"},{"bufferView":0,"byteOffset":2365192,"componentType":5123,"count":11589,"type":"SCALAR","name":"accessorIndices"},{"bufferView":1,"byteOffset":16100424,"componentType":5126,"count":11589,"max":[368.117249,5.13025665,919.734131],"min":[-368.117157,-5.13025665,-919.734],"type":"VEC3","name":"accessorPositions"},{"bufferView":1,"byteOffset":16239492,"componentType":5126,"count":11589,"type":"VEC3","name":"accessorNormals"},{"bufferView":2,"byteOffset":5366808,"componentType":5126,"count":11589,"type":"VEC2","name":"accessorUVs"},{"bufferView":0,"byteOffset":2388372,"componentType":5123,"count":9078,"type":"SCALAR","name":"accessorIndices"},{"bufferView":1,"byteOffset":16378560,"componentType":5126,"count":9078,"max":[367.406036,1.45868325,919.3627],"min":[-367.405853,-1.45868325,-919.3628],"type":"VEC3","name":"accessorPositions"},{"bufferView":1,"byteOffset":16487496,"componentType":5126,"count":9078,"type":"VEC3","name":"accessorNormals"},{"bufferView":2,"byteOffset":5459520,"componentType":5126,"count":9078,"type":"VEC2","name":"accessorUVs"},{"bufferView":0,"byteOffset":2406528,"componentType":5123,"count":35598,"type":"SCALAR","name":"accessorIndices"},{"bufferView":1,"byteOffset":16596432,"componentType":5126,"count":35598,"max":[366.292175,5.130249,917.368042],"min":[-366.29184,-5.130249,-917.3681],"type":"VEC3","name":"accessorPositions"},{"bufferView":1,"byteOffset":17023608,"componentType":5126,"count":35598,"type":"VEC3","name":"accessorNormals"},{"bufferView":2,"byteOffset":5532144,"componentType":5126,"count":35598,"type":"VEC2","name":"accessorUVs"},{"bufferView":0,"byteOffset":2477724,"componentType":5123,"count":18204,"type":"SCALAR","name":"accessorIndices"},{"bufferView":1,"byteOffset":17450784,"componentType":5126,"count":18204,"max":[365.6057,1.4586792,916.982056],"min":[-365.605652,-1.4586792,-916.9816],"type":"VEC3","name":"accessorPositions"},{"bufferView":1,"byteOffset":17669232,"componentType":5126,"count":18204,"type":"VEC3","name":"accessorNormals"},{"bufferView":2,"byteOffset":5816928,"componentType":5126,"count":18204,"type":"VEC2","name":"accessorUVs"},{"bufferView":0,"byteOffset":2514132,"componentType":5123,"count":10872,"type":"SCALAR","name":"accessorIndices"},{"bufferView":1,"byteOffset":17887680,"componentType":5126,"count":10872,"max":[346.547729,5.13025665,930.8707],"min":[-346.547363,-5.13025665,-930.87085],"type":"VEC3","name":"accessorPositions"},{"bufferView":1,"byteOffset":18018144,"componentType":5126,"count":10872,"type":"VEC3","name":"accessorNormals"},{"bufferView":2,"byteOffset":5962560,"componentType":5126,"count":10872,"type":"VEC2","name":"accessorUVs"},{"bufferView":0,"byteOffset":2535876,"componentType":5123,"count":9072,"type":"SCALAR","name":"accessorIndices"},{"bufferView":1,"byteOffset":18148608,"componentType":5126,"count":9072,"max":[345.8324,1.45868278,930.509155],"min":[-345.832275,-1.45868278,-930.509766],"type":"VEC3","name":"accessorPositions"},{"bufferView":1,"byteOffset":18257472,"componentType":5126,"count":9072,"type":"VEC3","name":"accessorNormals"},{"bufferView":2,"byteOffset":6049536,"componentType":5126,"count":9072,"type":"VEC2","name":"accessorUVs"},{"bufferView":0,"byteOffset":2554020,"componentType":5123,"count":34566,"type":"SCALAR","name":"accessorIndices"},{"bufferView":1,"byteOffset":18366336,"componentType":5126,"count":34566,"max":[348.859741,5.130254,932.371338],"min":[-348.86,-5.130254,-932.371338],"type":"VEC3","name":"accessorPositions"},{"bufferView":1,"byteOffset":18781128,"componentType":5126,"count":34566,"type":"VEC3","name":"accessorNormals"},{"bufferView":2,"byteOffset":6122112,"componentType":5126,"count":34566,"type":"VEC2","name":"accessorUVs"},{"bufferView":0,"byteOffset":2623152,"componentType":5123,"count":18474,"type":"SCALAR","name":"accessorIndices"},{"bufferView":1,"byteOffset":19195920,"componentType":5126,"count":18474,"max":[348.1681,1.4586792,931.9944],"min":[-348.167664,-1.4586792,-931.9949],"type":"VEC3","name":"accessorPositions"},{"bufferView":1,"byteOffset":19417608,"componentType":5126,"count":18474,"type":"VEC3","name":"accessorNormals"},{"bufferView":2,"byteOffset":6398640,"componentType":5126,"count":18474,"type":"VEC2","name":"accessorUVs"}],"bufferViews":[{"buffer":0,"byteLength":2660100,"name":"bufferViewScalar"},{"buffer":0,"byteOffset":2660100,"byteLength":19639296,"byteStride":12,"name":"bufferViewFloatVec3"},{"buffer":0,"byteOffset":22299396,"byteLength":6546432,"byteStride":8,"name":"bufferViewFloatVec2"}],"buffers":[{"uri":"demo0528.bin","byteLength":28845828}],"materials":[{"pbrMetallicRoughness":{"baseColorFactor":[1.0,1.0,1.0,1.0],"baseColorTexture":{"index":0,"texCoord":0},"metallicFactor":0.0,"roughnessFactor":0.9},"emissiveFactor":[0.0,0.0,0.0],"alphaMode":"OPAQUE","name":"01 - Default"},{"pbrMetallicRoughness":{"baseColorFactor":[1.0,1.0,1.0,1.0],"baseColorTexture":{"index":1,"texCoord":0},"metallicFactor":0.0,"roughnessFactor":0.9},"emissiveFactor":[0.0,0.0,0.0],"alphaMode":"OPAQUE","name":"01 22lt222"},{"pbrMetallicRoughness":{"baseColorFactor":[0.0,0.273692846,0.0,1.0],"metallicFactor":0.0,"roughnessFactor":0.9},"emissiveFactor":[0.0,0.0,0.0],"alphaMode":"OPAQUE","name":"21 - Default"},{"pbrMetallicRoughness":{"baseColorFactor":[1.0,1.0,1.0,1.0],"baseColorTexture":{"index":2,"texCoord":0},"metallicFactor":0.0,"roughnessFactor":0.9},"emissiveFactor":[0.0,0.0,0.0],"alphaMode":"OPAQUE","name":"01 - Default222"},{"pbrMetallicRoughness":{"baseColorFactor":[1.0,1.0,1.0,1.0],"baseColorTexture":{"index":3,"texCoord":0},"metallicFactor":0.0,"roughnessFactor":0.9},"emissiveFactor":[0.0,0.0,0.0],"alphaMode":"BLEND","name":"20 - Default"}],"textures":[{"sampler":0,"source":0,"name":"3D66.jpg"},{"sampler":0,"source":1,"name":"AS2_Cork_b.jpg"},{"sampler":0,"source":2,"name":"stone_012.jpg"},{"sampler":0,"source":3,"name":"PM.png"}],"images":[{"uri":"3D66.jpg"},{"uri":"AS2_Cork_b.jpg"},{"uri":"stone_012.jpg"},{"uri":"PM.png"}],"samplers":[{"magFilter":9729,"minFilter":9987,"wrapS":10497,"wrapT":10497}]}