{
  "materials": [
    {
      "name": "Std_weizhi_shuangkaibolimen_1200kuan.jpgLightingMap_20170505shebeifenleichuangjian_dulishebei_xiaopinpai_weizhi_shuangkaibolimen_1200kuan_1.bmp",
      "occlusionTexture": {
        "index": 0,
        "texCoord": 1
      },
      "pbrMetallicRoughness": {
        "baseColorTexture": {
          "index": 1,
          "texCoord": 0
        },
        "baseColorFactor": [
          1.0,
          1.0,
          1.0,
          1.0
        ],
        "metallicFactor": 0.1,
        "roughnessFactor": 0.6
      },
      "alphaMode": "OPAQUE"
    },
    {
      "name": "Std_boli.tgaLightingMap_20170505shebeifenleichuangjian_dulishebei_xiaopinpai_weizhi_shuangkaibolimen_1200kuan_1.bmp",
      "occlusionTexture": {
        "index": 0,
        "texCoord": 1
      },
      "pbrMetallicRoughness": {
        "baseColorTexture": {
          "index": 2,
          "texCoord": 0
        },
        "baseColorFactor": [
          1.0,
          1.0,
          1.0,
          1.0
        ],
        "metallicFactor": 0.1,
        "roughnessFactor": 0.6
      },
      "alphaMode": "BLEND"
    }
  ],
  "images": [
    {
      "uri": "FE3D568B8963148DD753D319C38A7E64.bmp"
    },
    {
      "uri": "4F2ADA0074815FFE56DF373141246E8D.jpg"
    },
    {
      "uri": "7AD6408FD7978EDBE3055702252506EF.png"
    }
  ],
  "textures": [
    {
      "name": "LightingMap_20170505shebeifenleichuangjian_dulishebei_xiaopinpai_weizhi_shuangkaibolimen_1200kuan_1.bmp",
      "sampler": 0,
      "source": 0
    },
    {
      "name": "weizhi_shuangkaibolimen_1200kuan.jpg",
      "sampler": 0,
      "source": 1
    },
    {
      "name": "boli.png",
      "sampler": 0,
      "source": 2
    }
  ],
  "meshes": [
    {
      "name": "Lo-BODY_01",
      "primitives": [
        {
          "material": 0,
          "mode": 4,
          "indices": 3,
          "attributes": {
            "COLOR_0": 6,
            "NORMAL": 5,
            "POSITION": 4,
            "TEXCOORD_0": 7,
            "TEXCOORD_1": 8
          }
        }
      ]
    },
    {
      "name": "Lo-YOUMEN_01",
      "primitives": [
        {
          "material": 0,
          "mode": 4,
          "indices": 9,
          "attributes": {
            "COLOR_0": 12,
            "NORMAL": 11,
            "POSITION": 10,
            "TEXCOORD_0": 13,
            "TEXCOORD_1": 14
          }
        },
        {
          "material": 1,
          "mode": 4,
          "indices": 21,
          "attributes": {
            "COLOR_0": 24,
            "NORMAL": 23,
            "POSITION": 22,
            "TEXCOORD_0": 25,
            "TEXCOORD_1": 26
          }
        }
      ]
    },
    {
      "name": "Lo-ZUOMEN_01",
      "primitives": [
        {
          "material": 0,
          "mode": 4,
          "indices": 15,
          "attributes": {
            "COLOR_0": 18,
            "NORMAL": 17,
            "POSITION": 16,
            "TEXCOORD_0": 19,
            "TEXCOORD_1": 20
          }
        },
        {
          "material": 1,
          "mode": 4,
          "indices": 27,
          "attributes": {
            "COLOR_0": 30,
            "NORMAL": 29,
            "POSITION": 28,
            "TEXCOORD_0": 31,
            "TEXCOORD_1": 32
          }
        }
      ]
    }
  ],
  "buffers": [
    {
      "byteLength": 284664,
      "uri": "64BC3133E157269B176398FDC2E282E0.bin"
    }
  ],
  "nodes": [
    {
      "name": "RootNode",
      "translation": [
        0.0,
        0.0,
        0.0
      ],
      "rotation": [
        0.0,
        0.0,
        0.0,
        1.0
      ],
      "scale": [
        1.0,
        1.0,
        1.0
      ],
      "children": [
        1,
        2,
        3
      ]
    },
    {
      "name": "Lo-BODY_01",
      "translation": [
        2.22377498360071E-11,
        0.0,
        -0.00050874036969617
      ],
      "rotation": [
        -0.70710676908493,
        0.0,
        0.0,
        0.70710676908493
      ],
      "scale": [
        0.00999999977648258,
        0.00999999977648258,
        0.00999999977648258
      ],
      "mesh": 0
    },
    {
      "name": "Lo-YOUMEN_01",
      "translation": [
        0.615692853927612,
        1.02412867546082,
        0.0574960224330425
      ],
      "rotation": [
        -0.70710676908493,
        0.0,
        0.0,
        0.70710676908493
      ],
      "scale": [
        0.00999999977648258,
        0.00999999977648258,
        0.00999999977648258
      ],
      "mesh": 1
    },
    {
      "name": "Lo-ZUOMEN_01",
      "translation": [
        -0.615692853927612,
        1.02305996417999,
        -0.000508704455569386
      ],
      "rotation": [
        -0.70710676908493,
        0.0,
        0.0,
        0.70710676908493
      ],
      "scale": [
        0.00999999977648258,
        0.00999999977648258,
        0.00999999977648258
      ],
      "mesh": 2
    }
  ],
  "asset": {
    "generator": "FBX2glTF",
    "version": "2.0"
  },
  "scene": 0,
  "bufferViews": [
    {
      "buffer": 0,
      "byteLength": 80,
      "byteOffset": 0
    },
    {
      "buffer": 0,
      "byteLength": 320,
      "byteOffset": 80
    },
    {
      "buffer": 0,
      "byteLength": 320,
      "byteOffset": 400
    },
    {
      "buffer": 0,
      "byteLength": 288,
      "byteOffset": 720,
      "target": 34963
    },
    {
      "buffer": 0,
      "byteLength": 936,
      "byteOffset": 1008,
      "target": 34962
    },
    {
      "buffer": 0,
      "byteLength": 936,
      "byteOffset": 1944,
      "target": 34962
    },
    {
      "buffer": 0,
      "byteLength": 1248,
      "byteOffset": 2880,
      "target": 34962
    },
    {
      "buffer": 0,
      "byteLength": 624,
      "byteOffset": 4128,
      "target": 34962
    },
    {
      "buffer": 0,
      "byteLength": 624,
      "byteOffset": 4752,
      "target": 34962
    },
    {
      "buffer": 0,
      "byteLength": 6312,
      "byteOffset": 5376,
      "target": 34963
    },
    {
      "buffer": 0,
      "byteLength": 28224,
      "byteOffset": 11688,
      "target": 34962
    },
    {
      "buffer": 0,
      "byteLength": 28224,
      "byteOffset": 39912,
      "target": 34962
    },
    {
      "buffer": 0,
      "byteLength": 37632,
      "byteOffset": 68136,
      "target": 34962
    },
    {
      "buffer": 0,
      "byteLength": 18816,
      "byteOffset": 105768,
      "target": 34962
    },
    {
      "buffer": 0,
      "byteLength": 18816,
      "byteOffset": 124584,
      "target": 34962
    },
    {
      "buffer": 0,
      "byteLength": 6312,
      "byteOffset": 143400,
      "target": 34963
    },
    {
      "buffer": 0,
      "byteLength": 28716,
      "byteOffset": 149712,
      "target": 34962
    },
    {
      "buffer": 0,
      "byteLength": 28716,
      "byteOffset": 178428,
      "target": 34962
    },
    {
      "buffer": 0,
      "byteLength": 38288,
      "byteOffset": 207144,
      "target": 34962
    },
    {
      "buffer": 0,
      "byteLength": 19144,
      "byteOffset": 245432,
      "target": 34962
    },
    {
      "buffer": 0,
      "byteLength": 19144,
      "byteOffset": 264576,
      "target": 34962
    },
    {
      "buffer": 0,
      "byteLength": 24,
      "byteOffset": 283720,
      "target": 34963
    },
    {
      "buffer": 0,
      "byteLength": 96,
      "byteOffset": 283744,
      "target": 34962
    },
    {
      "buffer": 0,
      "byteLength": 96,
      "byteOffset": 283840,
      "target": 34962
    },
    {
      "buffer": 0,
      "byteLength": 128,
      "byteOffset": 283936,
      "target": 34962
    },
    {
      "buffer": 0,
      "byteLength": 64,
      "byteOffset": 284064,
      "target": 34962
    },
    {
      "buffer": 0,
      "byteLength": 64,
      "byteOffset": 284128,
      "target": 34962
    },
    {
      "buffer": 0,
      "byteLength": 24,
      "byteOffset": 284192,
      "target": 34963
    },
    {
      "buffer": 0,
      "byteLength": 96,
      "byteOffset": 284216,
      "target": 34962
    },
    {
      "buffer": 0,
      "byteLength": 96,
      "byteOffset": 284312,
      "target": 34962
    },
    {
      "buffer": 0,
      "byteLength": 128,
      "byteOffset": 284408,
      "target": 34962
    },
    {
      "buffer": 0,
      "byteLength": 64,
      "byteOffset": 284536,
      "target": 34962
    },
    {
      "buffer": 0,
      "byteLength": 64,
      "byteOffset": 284600,
      "target": 34962
    }
  ],
  "scenes": [
    {
      "name": "Root Scene",
      "nodes": [
        0
      ]
    }
  ],
  "accessors": [
    {
      "componentType": 5126,
      "type": "SCALAR",
      "count": 20,
      "bufferView": 0,
      "byteOffset": 0,
      "min": [
        0.0
      ],
      "max": [
        0.791666686534882
      ]
    },
    {
      "componentType": 5126,
      "type": "VEC4",
      "count": 20,
      "bufferView": 1,
      "byteOffset": 0
    },
    {
      "componentType": 5126,
      "type": "VEC4",
      "count": 20,
      "bufferView": 2,
      "byteOffset": 0
    },
    {
      "componentType": 5123,
      "type": "SCALAR",
      "count": 144,
      "bufferView": 3,
      "byteOffset": 0
    },
    {
      "componentType": 5126,
      "type": "VEC3",
      "count": 78,
      "bufferView": 4,
      "byteOffset": 0,
      "min": [
        -66.4643859863281,
        -5.80047035217285,
        0.0
      ],
      "max": [
        66.4643859863281,
        5.80047035217285,
        210.0
      ]
    },
    {
      "componentType": 5126,
      "type": "VEC3",
      "count": 78,
      "bufferView": 5,
      "byteOffset": 0
    },
    {
      "componentType": 5126,
      "type": "VEC4",
      "count": 78,
      "bufferView": 6,
      "byteOffset": 0
    },
    {
      "componentType": 5126,
      "type": "VEC2",
      "count": 78,
      "bufferView": 7,
      "byteOffset": 0
    },
    {
      "componentType": 5126,
      "type": "VEC2",
      "count": 78,
      "bufferView": 8,
      "byteOffset": 0
    },
    {
      "componentType": 5123,
      "type": "SCALAR",
      "count": 3156,
      "bufferView": 9,
      "byteOffset": 0
    },
    {
      "componentType": 5126,
      "type": "VEC3",
      "count": 2352,
      "bufferView": 10,
      "byteOffset": 0,
      "min": [
        -61.5692863464355,
        -5.07222938537598,
        -102.412872314453
      ],
      "max": [
        0.0,
        16.9864559173584,
        102.310531616211
      ]
    },
    {
      "componentType": 5126,
      "type": "VEC3",
      "count": 2352,
      "bufferView": 11,
      "byteOffset": 0
    },
    {
      "componentType": 5126,
      "type": "VEC4",
      "count": 2352,
      "bufferView": 12,
      "byteOffset": 0
    },
    {
      "componentType": 5126,
      "type": "VEC2",
      "count": 2352,
      "bufferView": 13,
      "byteOffset": 0
    },
    {
      "componentType": 5126,
      "type": "VEC2",
      "count": 2352,
      "bufferView": 14,
      "byteOffset": 0
    },
    {
      "componentType": 5123,
      "type": "SCALAR",
      "count": 3156,
      "bufferView": 15,
      "byteOffset": 0
    },
    {
      "componentType": 5126,
      "type": "VEC3",
      "count": 2393,
      "bufferView": 16,
      "byteOffset": 0,
      "min": [
        -3.814697265625E-06,
        -10.8727006912231,
        -102.305992126465
      ],
      "max": [
        61.5692825317383,
        11.1859846115112,
        102.417411804199
      ]
    },
    {
      "componentType": 5126,
      "type": "VEC3",
      "count": 2393,
      "bufferView": 17,
      "byteOffset": 0
    },
    {
      "componentType": 5126,
      "type": "VEC4",
      "count": 2393,
      "bufferView": 18,
      "byteOffset": 0
    },
    {
      "componentType": 5126,
      "type": "VEC2",
      "count": 2393,
      "bufferView": 19,
      "byteOffset": 0
    },
    {
      "componentType": 5126,
      "type": "VEC2",
      "count": 2393,
      "bufferView": 20,
      "byteOffset": 0
    },
    {
      "componentType": 5123,
      "type": "SCALAR",
      "count": 12,
      "bufferView": 21,
      "byteOffset": 0
    },
    {
      "componentType": 5126,
      "type": "VEC3",
      "count": 8,
      "bufferView": 22,
      "byteOffset": 0,
      "min": [
        -53.881217956543,
        0.966748714447021,
        -97.6957931518555
      ],
      "max": [
        -5.22529602050781,
        10.6341991424561,
        97.69580078125
      ]
    },
    {
      "componentType": 5126,
      "type": "VEC3",
      "count": 8,
      "bufferView": 23,
      "byteOffset": 0
    },
    {
      "componentType": 5126,
      "type": "VEC4",
      "count": 8,
      "bufferView": 24,
      "byteOffset": 0
    },
    {
      "componentType": 5126,
      "type": "VEC2",
      "count": 8,
      "bufferView": 25,
      "byteOffset": 0
    },
    {
      "componentType": 5126,
      "type": "VEC2",
      "count": 8,
      "bufferView": 26,
      "byteOffset": 0
    },
    {
      "componentType": 5123,
      "type": "SCALAR",
      "count": 12,
      "bufferView": 27,
      "byteOffset": 0
    },
    {
      "componentType": 5126,
      "type": "VEC3",
      "count": 8,
      "bufferView": 28,
      "byteOffset": 0,
      "min": [
        5.22529220581055,
        -4.83372259140015,
        -97.5889129638672
      ],
      "max": [
        53.881217956543,
        4.83372831344604,
        97.8026809692383
      ]
    },
    {
      "componentType": 5126,
      "type": "VEC3",
      "count": 8,
      "bufferView": 29,
      "byteOffset": 0
    },
    {
      "componentType": 5126,
      "type": "VEC4",
      "count": 8,
      "bufferView": 30,
      "byteOffset": 0
    },
    {
      "componentType": 5126,
      "type": "VEC2",
      "count": 8,
      "bufferView": 31,
      "byteOffset": 0
    },
    {
      "componentType": 5126,
      "type": "VEC2",
      "count": 8,
      "bufferView": 32,
      "byteOffset": 0
    }
  ],
  "samplers": [
    {}
  ],
  "animations": [
    {
      "name": "OpenDoor",
      "channels": [
        {
          "sampler": 0,
          "target": {
            "node": 2,
            "path": "rotation"
          }
        },
        {
          "sampler": 1,
          "target": {
            "node": 3,
            "path": "rotation"
          }
        }
      ],
      "samplers": [
        {
          "input": 0,
          "interpolation": "LINEAR",
          "output": 1
        },
        {
          "input": 0,
          "interpolation": "LINEAR",
          "output": 2
        }
      ]
    }
  ]
}
