{
  "materials": [
    {
      "name": "Std_weizhi_chaiyoufadianji.jpg",
      "pbrMetallicRoughness": {
        "baseColorTexture": {
          "index": 0,
          "texCoord": 0
        },
        "baseColorFactor": [
          1.0,
          1.0,
          1.0,
          1.0
        ],
        "metallicFactor": 0.1,
        "roughnessFactor": 0.96
      },
      "alphaMode": "OPAQUE"
    },
    {
      "name": "Std_weizhi_chaiyoufadianjiA.jpg",
      "pbrMetallicRoughness": {
        "baseColorTexture": {
          "index": 1,
          "texCoord": 0
        },
        "baseColorFactor": [
          1.0,
          1.0,
          1.0,
          1.0
        ],
        "metallicFactor": 0.1,
        "roughnessFactor": 1
      },
      "alphaMode": "OPAQUE"
    }
  ],
  "images": [
    {
      "uri": "454CF2805200E2DAEDDF5E01031FAC55.jpg"
    },
    {
      "uri": "06CD9A4465D7361AD152758848612182.jpg"
    }
  ],
  "textures": [
    {
      "name": "weizhi_chaiyoufadianji.jpg",
      "sampler": 0,
      "source": 0
    },
    {
      "name": "weizhi_chaiyoufadianjiA.jpg",
      "sampler": 0,
      "source": 1
    }
  ],
  "meshes": [
    {
      "name": "Lo-ELEMENT_02",
      "primitives": [
        {
          "material": 0,
          "mode": 4,
          "indices": 0,
          "attributes": {
            "COLOR_0": 3,
            "NORMAL": 2,
            "POSITION": 1,
            "TEXCOORD_0": 4,
            "TEXCOORD_1": 5
          }
        },
        {
          "material": 1,
          "mode": 4,
          "indices": 12,
          "attributes": {
            "COLOR_0": 15,
            "NORMAL": 14,
            "POSITION": 13,
            "TEXCOORD_0": 16,
            "TEXCOORD_1": 17
          }
        }
      ]
    },
    {
      "name": "Lo-BODY_02",
      "primitives": [
        {
          "material": 0,
          "mode": 4,
          "indices": 6,
          "attributes": {
            "COLOR_0": 9,
            "NORMAL": 8,
            "POSITION": 7,
            "TEXCOORD_0": 10,
            "TEXCOORD_1": 11
          }
        },
        {
          "material": 1,
          "mode": 4,
          "indices": 18,
          "attributes": {
            "COLOR_0": 21,
            "NORMAL": 20,
            "POSITION": 19,
            "TEXCOORD_0": 22,
            "TEXCOORD_1": 23
          }
        }
      ]
    }
  ],
  "buffers": [
    {
      "byteLength": 1259368,
      "uri": "2A7CCB697ACBDA6DD22CABDAB5DE208B.bin"
    }
  ],
  "nodes": [
    {
      "name": "RootNode",
      "translation": [
        0.0,
        0.0,
        0.0
      ],
      "rotation": [
        0.0,
        0.0,
        0.0,
        1.0
      ],
      "scale": [
        1.0,
        1.0,
        1.0
      ],
      "children": [
        1,
        2
      ]
    },
    {
      "name": "Lo-ELEMENT_02",
      "translation": [
        -0.0107040405273438,
        0.209039762616158,
        -0.381423801183701
      ],
      "rotation": [
        8.14603424714733E-08,
        0.0,
        0.0,
        1.0
      ],
      "scale": [
        0.00999999977648258,
        0.00999999977648258,
        0.00999999977648258
      ],
      "mesh": 0
    },
    {
      "name": "Lo-BODY_02",
      "translation": [
        0.0,
        -0.0387469492852688,
        -1.48761316154378E-07
      ],
      "rotation": [
        -0.70710676908493,
        0.0,
        0.0,
        0.70710676908493
      ],
      "scale": [
        0.00999999977648258,
        0.00999999977648258,
        0.00999999977648258
      ],
      "mesh": 1
    }
  ],
  "asset": {
    "generator": "FBX2glTF",
    "version": "2.0"
  },
  "scene": 0,
  "bufferViews": [
    {
      "buffer": 0,
      "byteLength": 27780,
      "byteOffset": 0,
      "target": 34963
    },
    {
      "buffer": 0,
      "byteLength": 161808,
      "byteOffset": 27780,
      "target": 34962
    },
    {
      "buffer": 0,
      "byteLength": 161808,
      "byteOffset": 189588,
      "target": 34962
    },
    {
      "buffer": 0,
      "byteLength": 215744,
      "byteOffset": 351396,
      "target": 34962
    },
    {
      "buffer": 0,
      "byteLength": 107872,
      "byteOffset": 567140,
      "target": 34962
    },
    {
      "buffer": 0,
      "byteLength": 107872,
      "byteOffset": 675012,
      "target": 34962
    },
    {
      "buffer": 0,
      "byteLength": 9612,
      "byteOffset": 782884,
      "target": 34963
    },
    {
      "buffer": 0,
      "byteLength": 53580,
      "byteOffset": 792496,
      "target": 34962
    },
    {
      "buffer": 0,
      "byteLength": 53580,
      "byteOffset": 846076,
      "target": 34962
    },
    {
      "buffer": 0,
      "byteLength": 71440,
      "byteOffset": 899656,
      "target": 34962
    },
    {
      "buffer": 0,
      "byteLength": 35720,
      "byteOffset": 971096,
      "target": 34962
    },
    {
      "buffer": 0,
      "byteLength": 35720,
      "byteOffset": 1006816,
      "target": 34962
    },
    {
      "buffer": 0,
      "byteLength": 8274,
      "byteOffset": 1042536,
      "target": 34963
    },
    {
      "buffer": 0,
      "byteLength": 44616,
      "byteOffset": 1050812,
      "target": 34962
    },
    {
      "buffer": 0,
      "byteLength": 44616,
      "byteOffset": 1095428,
      "target": 34962
    },
    {
      "buffer": 0,
      "byteLength": 59488,
      "byteOffset": 1140044,
      "target": 34962
    },
    {
      "buffer": 0,
      "byteLength": 29744,
      "byteOffset": 1199532,
      "target": 34962
    },
    {
      "buffer": 0,
      "byteLength": 29744,
      "byteOffset": 1229276,
      "target": 34962
    },
    {
      "buffer": 0,
      "byteLength": 12,
      "byteOffset": 1259020,
      "target": 34963
    },
    {
      "buffer": 0,
      "byteLength": 72,
      "byteOffset": 1259032,
      "target": 34962
    },
    {
      "buffer": 0,
      "byteLength": 72,
      "byteOffset": 1259104,
      "target": 34962
    },
    {
      "buffer": 0,
      "byteLength": 96,
      "byteOffset": 1259176,
      "target": 34962
    },
    {
      "buffer": 0,
      "byteLength": 48,
      "byteOffset": 1259272,
      "target": 34962
    },
    {
      "buffer": 0,
      "byteLength": 48,
      "byteOffset": 1259320,
      "target": 34962
    }
  ],
  "scenes": [
    {
      "name": "Root Scene",
      "nodes": [
        0
      ]
    }
  ],
  "accessors": [
    {
      "componentType": 5123,
      "type": "SCALAR",
      "count": 13890,
      "bufferView": 0,
      "byteOffset": 0
    },
    {
      "componentType": 5126,
      "type": "VEC3",
      "count": 13484,
      "bufferView": 1,
      "byteOffset": 0,
      "min": [
        -95.1197357177734,
        1.92449188232422,
        -203.341491699219
      ],
      "max": [
        95.1197357177734,
        276.214172363281,
        203.341491699219
      ]
    },
    {
      "componentType": 5126,
      "type": "VEC3",
      "count": 13484,
      "bufferView": 2,
      "byteOffset": 0
    },
    {
      "componentType": 5126,
      "type": "VEC4",
      "count": 13484,
      "bufferView": 3,
      "byteOffset": 0
    },
    {
      "componentType": 5126,
      "type": "VEC2",
      "count": 13484,
      "bufferView": 4,
      "byteOffset": 0
    },
    {
      "componentType": 5126,
      "type": "VEC2",
      "count": 13484,
      "bufferView": 5,
      "byteOffset": 0
    },
    {
      "componentType": 5123,
      "type": "SCALAR",
      "count": 4806,
      "bufferView": 6,
      "byteOffset": 0
    },
    {
      "componentType": 5126,
      "type": "VEC3",
      "count": 4465,
      "bufferView": 7,
      "byteOffset": 0,
      "min": [
        -118.365882873535,
        -273.559326171875,
        2.40800476074219
      ],
      "max": [
        118.365882873535,
        273.559295654297,
        275.735198974609
      ]
    },
    {
      "componentType": 5126,
      "type": "VEC3",
      "count": 4465,
      "bufferView": 8,
      "byteOffset": 0
    },
    {
      "componentType": 5126,
      "type": "VEC4",
      "count": 4465,
      "bufferView": 9,
      "byteOffset": 0
    },
    {
      "componentType": 5126,
      "type": "VEC2",
      "count": 4465,
      "bufferView": 10,
      "byteOffset": 0
    },
    {
      "componentType": 5126,
      "type": "VEC2",
      "count": 4465,
      "bufferView": 11,
      "byteOffset": 0
    },
    {
      "componentType": 5123,
      "type": "SCALAR",
      "count": 4137,
      "bufferView": 12,
      "byteOffset": 0
    },
    {
      "componentType": 5126,
      "type": "VEC3",
      "count": 3718,
      "bufferView": 13,
      "byteOffset": 0,
      "min": [
        -58.9142112731934,
        4.94431304931641,
        -197.725921630859
      ],
      "max": [
        59.1957473754883,
        187.510238647461,
        83.2853088378906
      ]
    },
    {
      "componentType": 5126,
      "type": "VEC3",
      "count": 3718,
      "bufferView": 14,
      "byteOffset": 0
    },
    {
      "componentType": 5126,
      "type": "VEC4",
      "count": 3718,
      "bufferView": 15,
      "byteOffset": 0
    },
    {
      "componentType": 5126,
      "type": "VEC2",
      "count": 3718,
      "bufferView": 16,
      "byteOffset": 0
    },
    {
      "componentType": 5126,
      "type": "VEC2",
      "count": 3718,
      "bufferView": 17,
      "byteOffset": 0
    },
    {
      "componentType": 5123,
      "type": "SCALAR",
      "count": 6,
      "bufferView": 18,
      "byteOffset": 0
    },
    {
      "componentType": 5126,
      "type": "VEC3",
      "count": 6,
      "bufferView": 19,
      "byteOffset": 0,
      "min": [
        -21.0215225219727,
        -263.132995605469,
        155.681106567383
      ],
      "max": [
        26.2845802307129,
        -263.132934570313,
        204.667922973633
      ]
    },
    {
      "componentType": 5126,
      "type": "VEC3",
      "count": 6,
      "bufferView": 20,
      "byteOffset": 0
    },
    {
      "componentType": 5126,
      "type": "VEC4",
      "count": 6,
      "bufferView": 21,
      "byteOffset": 0
    },
    {
      "componentType": 5126,
      "type": "VEC2",
      "count": 6,
      "bufferView": 22,
      "byteOffset": 0
    },
    {
      "componentType": 5126,
      "type": "VEC2",
      "count": 6,
      "bufferView": 23,
      "byteOffset": 0
    }
  ],
  "samplers": [
    {}
  ]
}
