{
  "materials": [
    {
      "name": "Std_机柜U高_jpg",
      "pbrMetallicRoughness": {
        "baseColorTexture": {
          "index": 0,
          "texCoord": 0
        },
        "baseColorFactor": [
          1.0,
          1.0,
          1.0,
          1.0
        ],
         "metallicFactor": 1,
         "roughnessFactor": 0.5
      },
      "alphaMode": "OPAQUE"
    },
    {
      "name": "Std_huawei_机柜42U_jpgLightingMap_20180102设备创建_机柜_huawei_dummy52U_精模_1.bmp",
      "occlusionTexture": {
        "index": 1,
        "texCoord": 1
      },
      "pbrMetallicRoughness": {
        "baseColorTexture": {
          "index": 2,
          "texCoord": 0
        },
        "baseColorFactor": [
          1.0,
          1.0,
          1.0,
          1.0
        ],
        "metallicFactor": 1,
        "roughnessFactor": 0.5
      },
      "alphaMode": "OPAQUE",
      "doubleSided": true
    },
    {
      "name": "TexLibMat_Std_黑色网孔.Lib.jpgLightingMap_20180102设备创建_机柜_huawei_dummy52U_精模_1.bmp",
      "occlusionTexture": {
        "index": 1,
        "texCoord": 1
      },
      "pbrMetallicRoughness": {
        "baseColorTexture": {
          "index": 3,
          "texCoord": 0
        },
        "baseColorFactor": [
          1.0,
          1.0,
          1.0,
          1.0
        ],
         "metallicFactor": 1,
         "roughnessFactor": 0.5
      },
      "alphaMode": "OPAQUE"
    },
    {
      "name": "Std_LOGO.pngLightingMap_20180102设备创建_机柜_huawei_dummy52U_精模_1.bmp_alpha",
      "occlusionTexture": {
        "index": 1,
        "texCoord": 1
      },
      "pbrMetallicRoughness": {
        "baseColorTexture": {
          "index": 4,
          "texCoord": 0
        },
        "baseColorFactor": [
          1.0,
          1.0,
          1.0,
          1.0
        ],
         "metallicFactor": 1,
         "roughnessFactor": 0.5
      },
      "alphaMode": "BLEND"
    }
  ],
  "images": [
    {
      "uri": "5EDB1B5608A4A1A95FB81C93F960CDA3.jpg"
    },
    {
      "uri": "386B4AC872FE0E9F50CFA9C2E0187E94.jpg"
    },
    {
      "uri": "5529B97578E8221D9FE6B171C68EF4BE.jpg"
    },
    {
      "uri": "2D90F50909508B1CDE890F4F5ABFE8E7.jpg"
    },
    {
      "uri": "D025A2AC33B2FE817022AF0D5639785F.png"
    }
  ],
  "textures": [
    {
      "name": "smd_1.jpg",
      "sampler": 0,
      "source": 0
    },
    {
      "name": "LightingMap_20180102设备创建_机柜_huawei_dummy52U_精模_1_f_bmp.jpg",
      "sampler": 0,
      "source": 1
    },
    {
      "name": "smd_2.jpg",
      "sampler": 0,
      "source": 2
    },
    {
      "name": "smd_4.jpg",
      "sampler": 0,
      "source": 3
    },
    {
      "name": "smd_5.png",
      "sampler": 0,
      "source": 4
    }
  ],
  "meshes": [
    {
      "name": "Lo-u标尺_01",
      "primitives": [
        {
          "material": 0,
          "mode": 4,
          "indices": 4,
          "attributes": {
            "NORMAL": 6,
            "POSITION": 5,
            "TEXCOORD_0": 7,
            "TEXCOORD_1": 8
          }
        }
      ]
    },
    {
      "name": "Lo-qianmen_01",
      "primitives": [
        {
          "material": 1,
          "mode": 4,
          "indices": 9,
          "attributes": {
            "COLOR_0": 12,
            "NORMAL": 11,
            "POSITION": 10,
            "TEXCOORD_0": 13,
            "TEXCOORD_1": 14
          }
        },
        {
          "material": 2,
          "mode": 4,
          "indices": 33,
          "attributes": {
            "COLOR_0": 36,
            "NORMAL": 35,
            "POSITION": 34,
            "TEXCOORD_0": 37,
            "TEXCOORD_1": 38
          }
        },
        {
          "material": 3,
          "mode": 4,
          "indices": 51,
          "attributes": {
            "COLOR_0": 54,
            "NORMAL": 53,
            "POSITION": 52,
            "TEXCOORD_0": 55,
            "TEXCOORD_1": 56
          }
        }
      ]
    },
    {
      "name": "Lo-houzuomen_01",
      "primitives": [
        {
          "material": 1,
          "mode": 4,
          "indices": 15,
          "attributes": {
            "COLOR_0": 18,
            "NORMAL": 17,
            "POSITION": 16,
            "TEXCOORD_0": 19,
            "TEXCOORD_1": 20
          }
        },
        {
          "material": 2,
          "mode": 4,
          "indices": 39,
          "attributes": {
            "COLOR_0": 42,
            "NORMAL": 41,
            "POSITION": 40,
            "TEXCOORD_0": 43,
            "TEXCOORD_1": 44
          }
        }
      ]
    },
    {
      "name": "Lo-houyoumen_01",
      "primitives": [
        {
          "material": 1,
          "mode": 4,
          "indices": 21,
          "attributes": {
            "COLOR_0": 24,
            "NORMAL": 23,
            "POSITION": 22,
            "TEXCOORD_0": 25,
            "TEXCOORD_1": 26
          }
        },
        {
          "material": 2,
          "mode": 4,
          "indices": 45,
          "attributes": {
            "COLOR_0": 48,
            "NORMAL": 47,
            "POSITION": 46,
            "TEXCOORD_0": 49,
            "TEXCOORD_1": 50
          }
        }
      ]
    },
    {
      "name": "Lo-BODY_01",
      "primitives": [
        {
          "material": 1,
          "mode": 4,
          "indices": 27,
          "attributes": {
            "COLOR_0": 30,
            "NORMAL": 29,
            "POSITION": 28,
            "TEXCOORD_0": 31,
            "TEXCOORD_1": 32
          }
        }
      ]
    }
  ],
  "buffers": [
    {
      "byteLength": 124456,
      "uri": "D513CF513D978A95F85EC747BC086259.bin"
    }
  ],
  "bufferViews": [
    {
      "buffer": 0,
      "byteLength": 80,
      "byteOffset": 0
    },
    {
      "buffer": 0,
      "byteLength": 320,
      "byteOffset": 80
    },
    {
      "buffer": 0,
      "byteLength": 320,
      "byteOffset": 400
    },
    {
      "buffer": 0,
      "byteLength": 320,
      "byteOffset": 720
    },
    {
      "buffer": 0,
      "target": 34963,
      "byteLength": 8064,
      "byteOffset": 1040
    },
    {
      "buffer": 0,
      "target": 34962,
      "byteLength": 17280,
      "byteOffset": 9104
    },
    {
      "buffer": 0,
      "target": 34962,
      "byteLength": 17280,
      "byteOffset": 26384
    },
    {
      "buffer": 0,
      "target": 34962,
      "byteLength": 11520,
      "byteOffset": 43664
    },
    {
      "buffer": 0,
      "target": 34962,
      "byteLength": 11520,
      "byteOffset": 55184
    },
    {
      "buffer": 0,
      "target": 34963,
      "byteLength": 564,
      "byteOffset": 66704
    },
    {
      "buffer": 0,
      "target": 34962,
      "byteLength": 2916,
      "byteOffset": 67268
    },
    {
      "buffer": 0,
      "target": 34962,
      "byteLength": 2916,
      "byteOffset": 70184
    },
    {
      "buffer": 0,
      "target": 34962,
      "byteLength": 3888,
      "byteOffset": 73100
    },
    {
      "buffer": 0,
      "target": 34962,
      "byteLength": 1944,
      "byteOffset": 76988
    },
    {
      "buffer": 0,
      "target": 34962,
      "byteLength": 1944,
      "byteOffset": 78932
    },
    {
      "buffer": 0,
      "target": 34963,
      "byteLength": 444,
      "byteOffset": 80876
    },
    {
      "buffer": 0,
      "target": 34962,
      "byteLength": 2292,
      "byteOffset": 81320
    },
    {
      "buffer": 0,
      "target": 34962,
      "byteLength": 2292,
      "byteOffset": 83612
    },
    {
      "buffer": 0,
      "target": 34962,
      "byteLength": 3056,
      "byteOffset": 85904
    },
    {
      "buffer": 0,
      "target": 34962,
      "byteLength": 1528,
      "byteOffset": 88960
    },
    {
      "buffer": 0,
      "target": 34962,
      "byteLength": 1528,
      "byteOffset": 90488
    },
    {
      "buffer": 0,
      "target": 34963,
      "byteLength": 348,
      "byteOffset": 92016
    },
    {
      "buffer": 0,
      "target": 34962,
      "byteLength": 1776,
      "byteOffset": 92364
    },
    {
      "buffer": 0,
      "target": 34962,
      "byteLength": 1776,
      "byteOffset": 94140
    },
    {
      "buffer": 0,
      "target": 34962,
      "byteLength": 2368,
      "byteOffset": 95916
    },
    {
      "buffer": 0,
      "target": 34962,
      "byteLength": 1184,
      "byteOffset": 98284
    },
    {
      "buffer": 0,
      "target": 34962,
      "byteLength": 1184,
      "byteOffset": 99468
    },
    {
      "buffer": 0,
      "target": 34963,
      "byteLength": 1104,
      "byteOffset": 100652
    },
    {
      "buffer": 0,
      "target": 34962,
      "byteLength": 4332,
      "byteOffset": 101756
    },
    {
      "buffer": 0,
      "target": 34962,
      "byteLength": 4332,
      "byteOffset": 106088
    },
    {
      "buffer": 0,
      "target": 34962,
      "byteLength": 5776,
      "byteOffset": 110420
    },
    {
      "buffer": 0,
      "target": 34962,
      "byteLength": 2888,
      "byteOffset": 116196
    },
    {
      "buffer": 0,
      "target": 34962,
      "byteLength": 2888,
      "byteOffset": 119084
    },
    {
      "buffer": 0,
      "target": 34963,
      "byteLength": 36,
      "byteOffset": 121972
    },
    {
      "buffer": 0,
      "target": 34962,
      "byteLength": 144,
      "byteOffset": 122008
    },
    {
      "buffer": 0,
      "target": 34962,
      "byteLength": 144,
      "byteOffset": 122152
    },
    {
      "buffer": 0,
      "target": 34962,
      "byteLength": 192,
      "byteOffset": 122296
    },
    {
      "buffer": 0,
      "target": 34962,
      "byteLength": 96,
      "byteOffset": 122488
    },
    {
      "buffer": 0,
      "target": 34962,
      "byteLength": 96,
      "byteOffset": 122584
    },
    {
      "buffer": 0,
      "target": 34963,
      "byteLength": 48,
      "byteOffset": 122680
    },
    {
      "buffer": 0,
      "target": 34962,
      "byteLength": 168,
      "byteOffset": 122728
    },
    {
      "buffer": 0,
      "target": 34962,
      "byteLength": 168,
      "byteOffset": 122896
    },
    {
      "buffer": 0,
      "target": 34962,
      "byteLength": 224,
      "byteOffset": 123064
    },
    {
      "buffer": 0,
      "target": 34962,
      "byteLength": 112,
      "byteOffset": 123288
    },
    {
      "buffer": 0,
      "target": 34962,
      "byteLength": 112,
      "byteOffset": 123400
    },
    {
      "buffer": 0,
      "target": 34963,
      "byteLength": 36,
      "byteOffset": 123512
    },
    {
      "buffer": 0,
      "target": 34962,
      "byteLength": 144,
      "byteOffset": 123548
    },
    {
      "buffer": 0,
      "target": 34962,
      "byteLength": 144,
      "byteOffset": 123692
    },
    {
      "buffer": 0,
      "target": 34962,
      "byteLength": 192,
      "byteOffset": 123836
    },
    {
      "buffer": 0,
      "target": 34962,
      "byteLength": 96,
      "byteOffset": 124028
    },
    {
      "buffer": 0,
      "target": 34962,
      "byteLength": 96,
      "byteOffset": 124124
    },
    {
      "buffer": 0,
      "target": 34963,
      "byteLength": 12,
      "byteOffset": 124220
    },
    {
      "buffer": 0,
      "target": 34962,
      "byteLength": 48,
      "byteOffset": 124232
    },
    {
      "buffer": 0,
      "target": 34962,
      "byteLength": 48,
      "byteOffset": 124280
    },
    {
      "buffer": 0,
      "target": 34962,
      "byteLength": 64,
      "byteOffset": 124328
    },
    {
      "buffer": 0,
      "target": 34962,
      "byteLength": 32,
      "byteOffset": 124392
    },
    {
      "buffer": 0,
      "target": 34962,
      "byteLength": 32,
      "byteOffset": 124424
    }
  ],
  "accessors": [
    {
      "componentType": 5126,
      "type": "SCALAR",
      "bufferView": 0,
      "byteOffset": 0,
      "count": 20,
      "min": [
        0.0
      ],
      "max": [
        0.791666686534882
      ]
    },
    {
      "componentType": 5126,
      "type": "VEC4",
      "bufferView": 1,
      "byteOffset": 0,
      "count": 20
    },
    {
      "componentType": 5126,
      "type": "VEC4",
      "bufferView": 2,
      "byteOffset": 0,
      "count": 20
    },
    {
      "componentType": 5126,
      "type": "VEC4",
      "bufferView": 3,
      "byteOffset": 0,
      "count": 20
    },
    {
      "componentType": 5123,
      "type": "SCALAR",
      "bufferView": 4,
      "byteOffset": 0,
      "count": 4032
    },
    {
      "componentType": 5126,
      "type": "VEC3",
      "bufferView": 5,
      "byteOffset": 0,
      "count": 1440,
      "min": [
        -0.245010748505592,
        -0.475823968648911,
        -1.22235071659088
      ],
      "max": [
        0.245010748505592,
        0.475823968648911,
        0.644550085067749
      ]
    },
    {
      "componentType": 5126,
      "type": "VEC3",
      "bufferView": 6,
      "byteOffset": 0,
      "count": 1440
    },
    {
      "componentType": 5126,
      "type": "VEC2",
      "bufferView": 7,
      "byteOffset": 0,
      "count": 1440
    },
    {
      "componentType": 5126,
      "type": "VEC2",
      "bufferView": 8,
      "byteOffset": 0,
      "count": 1440
    },
    {
      "componentType": 5123,
      "type": "SCALAR",
      "bufferView": 9,
      "byteOffset": 0,
      "count": 282
    },
    {
      "componentType": 5126,
      "type": "VEC3",
      "bufferView": 10,
      "byteOffset": 0,
      "count": 243,
      "min": [
        -0.560639977455139,
        -0.0201711915433407,
        -1.4835000038147
      ],
      "max": [
        3.81469718035987E-08,
        -6.30617137176159E-07,
        0.516500234603882
      ]
    },
    {
      "componentType": 5126,
      "type": "VEC3",
      "bufferView": 11,
      "byteOffset": 0,
      "count": 243
    },
    {
      "componentType": 5126,
      "type": "VEC4",
      "bufferView": 12,
      "byteOffset": 0,
      "count": 243
    },
    {
      "componentType": 5126,
      "type": "VEC2",
      "bufferView": 13,
      "byteOffset": 0,
      "count": 243
    },
    {
      "componentType": 5126,
      "type": "VEC2",
      "bufferView": 14,
      "byteOffset": 0,
      "count": 243
    },
    {
      "componentType": 5123,
      "type": "SCALAR",
      "bufferView": 15,
      "byteOffset": 0,
      "count": 222
    },
    {
      "componentType": 5126,
      "type": "VEC3",
      "bufferView": 16,
      "byteOffset": 0,
      "count": 191,
      "min": [
        -3.81469718035987E-08,
        -6.31809200513089E-08,
        -1.4835000038147
      ],
      "max": [
        0.280320078134537,
        0.0212636552751064,
        0.516500234603882
      ]
    },
    {
      "componentType": 5126,
      "type": "VEC3",
      "bufferView": 17,
      "byteOffset": 0,
      "count": 191
    },
    {
      "componentType": 5126,
      "type": "VEC4",
      "bufferView": 18,
      "byteOffset": 0,
      "count": 191
    },
    {
      "componentType": 5126,
      "type": "VEC2",
      "bufferView": 19,
      "byteOffset": 0,
      "count": 191
    },
    {
      "componentType": 5126,
      "type": "VEC2",
      "bufferView": 20,
      "byteOffset": 0,
      "count": 191
    },
    {
      "componentType": 5123,
      "type": "SCALAR",
      "bufferView": 21,
      "byteOffset": 0,
      "count": 174
    },
    {
      "componentType": 5126,
      "type": "VEC3",
      "bufferView": 22,
      "byteOffset": 0,
      "count": 148,
      "min": [
        -0.280319929122925,
        -6.19888282926695E-08,
        -1.4835000038147
      ],
      "max": [
        0.0,
        0.0212636552751064,
        0.516499936580658
      ]
    },
    {
      "componentType": 5126,
      "type": "VEC3",
      "bufferView": 23,
      "byteOffset": 0,
      "count": 148
    },
    {
      "componentType": 5126,
      "type": "VEC4",
      "bufferView": 24,
      "byteOffset": 0,
      "count": 148
    },
    {
      "componentType": 5126,
      "type": "VEC2",
      "bufferView": 25,
      "byteOffset": 0,
      "count": 148
    },
    {
      "componentType": 5126,
      "type": "VEC2",
      "bufferView": 26,
      "byteOffset": 0,
      "count": 148
    },
    {
      "componentType": 5123,
      "type": "SCALAR",
      "bufferView": 27,
      "byteOffset": 0,
      "count": 552
    },
    {
      "componentType": 5126,
      "type": "VEC3",
      "bufferView": 28,
      "byteOffset": 0,
      "count": 361,
      "min": [
        -0.299999982118607,
        -0.584339678287506,
        -0.00200012209825218
      ],
      "max": [
        0.299999982118607,
        0.584339618682861,
        1.99799978733063
      ]
    },
    {
      "componentType": 5126,
      "type": "VEC3",
      "bufferView": 29,
      "byteOffset": 0,
      "count": 361
    },
    {
      "componentType": 5126,
      "type": "VEC4",
      "bufferView": 30,
      "byteOffset": 0,
      "count": 361
    },
    {
      "componentType": 5126,
      "type": "VEC2",
      "bufferView": 31,
      "byteOffset": 0,
      "count": 361
    },
    {
      "componentType": 5126,
      "type": "VEC2",
      "bufferView": 32,
      "byteOffset": 0,
      "count": 361
    },
    {
      "componentType": 5123,
      "type": "SCALAR",
      "bufferView": 33,
      "byteOffset": 0,
      "count": 18
    },
    {
      "componentType": 5126,
      "type": "VEC3",
      "bufferView": 34,
      "byteOffset": 0,
      "count": 12,
      "min": [
        -0.493597090244293,
        -0.0200006868690252,
        -1.43250012397766
      ],
      "max": [
        -0.0690280497074127,
        -6.6818830646298E-07,
        0.465500235557556
      ]
    },
    {
      "componentType": 5126,
      "type": "VEC3",
      "bufferView": 35,
      "byteOffset": 0,
      "count": 12
    },
    {
      "componentType": 5126,
      "type": "VEC4",
      "bufferView": 36,
      "byteOffset": 0,
      "count": 12
    },
    {
      "componentType": 5126,
      "type": "VEC2",
      "bufferView": 37,
      "byteOffset": 0,
      "count": 12
    },
    {
      "componentType": 5126,
      "type": "VEC2",
      "bufferView": 38,
      "byteOffset": 0,
      "count": 12
    },
    {
      "componentType": 5123,
      "type": "SCALAR",
      "bufferView": 39,
      "byteOffset": 0,
      "count": 24
    },
    {
      "componentType": 5126,
      "type": "VEC3",
      "bufferView": 40,
      "byteOffset": 0,
      "count": 14,
      "min": [
        0.0510000586509705,
        3.15894467348699E-05,
        -1.43250000476837
      ],
      "max": [
        0.227842450141907,
        0.0212636552751064,
        0.465500295162201
      ]
    },
    {
      "componentType": 5126,
      "type": "VEC3",
      "bufferView": 41,
      "byteOffset": 0,
      "count": 14
    },
    {
      "componentType": 5126,
      "type": "VEC4",
      "bufferView": 42,
      "byteOffset": 0,
      "count": 14
    },
    {
      "componentType": 5126,
      "type": "VEC2",
      "bufferView": 43,
      "byteOffset": 0,
      "count": 14
    },
    {
      "componentType": 5126,
      "type": "VEC2",
      "bufferView": 44,
      "byteOffset": 0,
      "count": 14
    },
    {
      "componentType": 5123,
      "type": "SCALAR",
      "bufferView": 45,
      "byteOffset": 0,
      "count": 18
    },
    {
      "componentType": 5126,
      "type": "VEC3",
      "bufferView": 46,
      "byteOffset": 0,
      "count": 12,
      "min": [
        -0.227842375636101,
        3.15765100822318E-05,
        -1.43250012397766
      ],
      "max": [
        -0.0510000213980675,
        0.0212636552751064,
        0.465499877929688
      ]
    },
    {
      "componentType": 5126,
      "type": "VEC3",
      "bufferView": 47,
      "byteOffset": 0,
      "count": 12
    },
    {
      "componentType": 5126,
      "type": "VEC4",
      "bufferView": 48,
      "byteOffset": 0,
      "count": 12
    },
    {
      "componentType": 5126,
      "type": "VEC2",
      "bufferView": 49,
      "byteOffset": 0,
      "count": 12
    },
    {
      "componentType": 5126,
      "type": "VEC2",
      "bufferView": 50,
      "byteOffset": 0,
      "count": 12
    },
    {
      "componentType": 5123,
      "type": "SCALAR",
      "bufferView": 51,
      "byteOffset": 0,
      "count": 6
    },
    {
      "componentType": 5126,
      "type": "VEC3",
      "bufferView": 52,
      "byteOffset": 0,
      "count": 4,
      "min": [
        -0.193435937166214,
        -0.0216422211378813,
        0.351309180259705
      ],
      "max": [
        -0.0735674649477005,
        -0.0216421782970428,
        0.389972567558289
      ]
    },
    {
      "componentType": 5126,
      "type": "VEC3",
      "bufferView": 53,
      "byteOffset": 0,
      "count": 4
    },
    {
      "componentType": 5126,
      "type": "VEC4",
      "bufferView": 54,
      "byteOffset": 0,
      "count": 4
    },
    {
      "componentType": 5126,
      "type": "VEC2",
      "bufferView": 55,
      "byteOffset": 0,
      "count": 4
    },
    {
      "componentType": 5126,
      "type": "VEC2",
      "bufferView": 56,
      "byteOffset": 0,
      "count": 4
    }
  ],
  "nodes": [
    {
      "name": "RootNode",
      "translation": [
        0.0,
        0.0,
        0.0
      ],
      "rotation": [
        0.0,
        0.0,
        0.0,
        1.0
      ],
      "scale": [
        1.0,
        1.0,
        1.0
      ],
      "children": [
        1,
        2,
        3,
        4,
        5,
        6,
        7
      ]
    },
    {
      "name": "BasePoint",
      "translation": [
        -5.81898530072067E-05,
        0.0393566787242889,
        0.458377301692963
      ],
      "rotation": [
        -0.70710676908493,
        0.0,
        0.0,
        0.70710676908493
      ],
      "scale": [
        0.0278929993510246,
        0.0278929993510246,
        0.0278929993510246
      ]
    },
    {
      "name": "Lo-u标尺_01",
      "translation": [
        -0.0001705159957055,
        1.26170718669891,
        -0.0174465831369162
      ],
      "rotation": [
        -0.70710676908493,
        0.0,
        0.0,
        0.70710676908493
      ],
      "scale": [
        1.0,
        1.0,
        1.0
      ],
      "mesh": 0
    },
    {
      "name": "Lo-qianmen_01",
      "translation": [
        0.280319958925247,
        1.48149955272675,
        0.584338903427124
      ],
      "rotation": [
        -0.70710676908493,
        4.21468477895814E-08,
        4.21468477895814E-08,
        0.70710676908493
      ],
      "scale": [
        1.0,
        1.0,
        1.0
      ],
      "mesh": 1
    },
    {
      "name": "Lo-houzuomen_01",
      "translation": [
        -0.280319958925247,
        1.48149955272675,
        -0.584339559078217
      ],
      "rotation": [
        -0.70710676908493,
        4.21468477895814E-08,
        4.21468477895814E-08,
        0.70710676908493
      ],
      "scale": [
        1.0,
        1.0,
        1.0
      ],
      "mesh": 2
    },
    {
      "name": "Lo-houyoumen_01",
      "translation": [
        0.280319958925247,
        1.48149991035461,
        -0.584339559078217
      ],
      "rotation": [
        -0.70710676908493,
        0.0,
        0.0,
        0.70710676908493
      ],
      "scale": [
        1.0,
        1.0,
        1.0
      ],
      "mesh": 3
    },
    {
      "name": "Lo-BODY_01",
      "translation": [
        0.0,
        0.0,
        0.0
      ],
      "rotation": [
        -0.70710676908493,
        0.0,
        0.0,
        0.70710676908493
      ],
      "scale": [
        1.0,
        1.0,
        1.0
      ],
      "mesh": 4
    },
    {
      "name": "BasePoint01",
      "translation": [
        -5.81898530072067E-05,
        0.0393566787242889,
        0.458377242088318
      ],
      "rotation": [
        -0.70710676908493,
        0.0,
        0.0,
        0.70710676908493
      ],
      "scale": [
        0.0278929993510246,
        0.0278929993510246,
        0.0278929993510246
      ]
    }
  ],
  "asset": {
    "generator": "FBX2glTF",
    "version": "2.0"
  },
  "scene": 0,
  "scenes": [
    {
      "name": "Root Scene",
      "nodes": [
        0
      ]
    }
  ],
  "samplers": [
    {}
  ],
  "animations": [
    {
      "name": "OpenDoor",
      "channels": [
        {
          "sampler": 0,
          "target": {
            "node": 3,
            "path": "rotation"
          }
        },
        {
          "sampler": 1,
          "target": {
            "node": 4,
            "path": "rotation"
          }
        },
        {
          "sampler": 2,
          "target": {
            "node": 5,
            "path": "rotation"
          }
        }
      ],
      "samplers": [
        {
          "input": 0,
          "interpolation": "LINEAR",
          "output": 1
        },
        {
          "input": 0,
          "interpolation": "LINEAR",
          "output": 2
        },
        {
          "input": 0,
          "interpolation": "LINEAR",
          "output": 3
        }
      ]
    }
  ]
}
