{
  "materials": [
    {
      "name": "Std_huawei_机柜42U.jpgLightingMap_20170505设备分类创建_机柜_HUAWEI_HUAWEI_华为机柜_简模_1.bmp",
      "occlusionTexture": {
        "index": 0,
        "texCoord": 1
      },
      "pbrMetallicRoughness": {
        "baseColorTexture": {
          "index": 1,
          "texCoord": 0
        },
        "baseColorFactor": [
          1.0,
          1.0,
          1.0,
          1.0
        ],
        "metallicFactor": 0,
        "roughnessFactor": 0.96
      },
      "alphaMode": "OPAQUE"
    },
    {
      "name": "Std_huawei_机柜42U.jpg",
      "pbrMetallicRoughness": {
        "baseColorTexture": {
          "index": 1,
          "texCoord": 0
        },
        "baseColorFactor": [
          1.0,
          1.0,
          1.0,
          1.0
        ],
        "metallicFactor": 0,
        "roughnessFactor": 0.96
      },
      "alphaMode": "OPAQUE"
    },
    {
      "name": "Std_LOGO.png_alpha",
      "pbrMetallicRoughness": {
        "baseColorTexture": {
          "index": 2,
          "texCoord": 0
        },
        "baseColorFactor": [
          1.0,
          1.0,
          1.0,
          1.0
        ],
        "metallicFactor": 0,
        "roughnessFactor": 1
      },
      "alphaMode": "BLEND"
    },
    {
      "name": "Std_机柜U高_jpg",
      "pbrMetallicRoughness": {
        "baseColorTexture": {
          "index": 3,
          "texCoord": 0
        },
        "baseColorFactor": [
          1.0,
          1.0,
          1.0,
          1.0
        ],
        "metallicFactor": 0,
        "roughnessFactor": 1
      },
      "alphaMode": "OPAQUE"
    }
  ],
  "images": [
    {
      "uri": "KGQ80RJWQG7TVPJ7NGHHNWYZ0Q28NQP96.jpg"
    },
    {
      "uri": "VX760IJ0CIHZ81DWT1MEZNE1YVXJ26PA8.jpg"
    },
    {
      "uri": "WOO22MUYCDJT1QZ8OHOOT251NV4HPOGT1.png"
    },
    {
      "uri": "VQ3WKTT4IGHU72PUPV5J6KIFD1CAJ7YUD.jpg"
    }
  ],
  "textures": [
    {
      "name": "LightingMap_20170505设备分类创建_机柜_HUAWEI_HUAWEI_华为机柜_简模_1_f_bmp.jpg",
      "sampler": 0,
      "source": 0
    },
    {
      "name": "smd_2.jpg",
      "sampler": 0,
      "source": 1
    },
    {
      "name": "smd_4.png",
      "sampler": 0,
      "source": 2
    },
    {
      "name": "smd_1.jpg",
      "sampler": 0,
      "source": 3
    }
  ],
  "meshes": [
    {
      "name": "Lo-BODY_01",
      "primitives": [
        {
          "material": 0,
          "mode": 4,
          "indices": 4,
          "attributes": {
            "COLOR_0": 7,
            "NORMAL": 6,
            "POSITION": 5,
            "TEXCOORD_0": 8,
            "TEXCOORD_1": 9
          }
        }
      ]
    },
    {
      "name": "Lo-qianmen_01",
      "primitives": [
        {
          "material": 1,
          "mode": 4,
          "indices": 10,
          "attributes": {
            "COLOR_0": 13,
            "NORMAL": 12,
            "POSITION": 11,
            "TEXCOORD_0": 14,
            "TEXCOORD_1": 15
          }
        },
        {
          "material": 2,
          "mode": 4,
          "indices": 33,
          "attributes": {
            "COLOR_0": 36,
            "NORMAL": 35,
            "POSITION": 34,
            "TEXCOORD_0": 37,
            "TEXCOORD_1": 38
          }
        }
      ]
    },
    {
      "name": "Lo-houmenA_01",
      "primitives": [
        {
          "material": 1,
          "mode": 4,
          "indices": 16,
          "attributes": {
            "COLOR_0": 19,
            "NORMAL": 18,
            "POSITION": 17,
            "TEXCOORD_0": 20,
            "TEXCOORD_1": 21
          }
        }
      ]
    },
    {
      "name": "Lo-houmenB_01",
      "primitives": [
        {
          "material": 1,
          "mode": 4,
          "indices": 22,
          "attributes": {
            "COLOR_0": 25,
            "NORMAL": 24,
            "POSITION": 23,
            "TEXCOORD_0": 26,
            "TEXCOORD_1": 27
          }
        }
      ]
    },
    {
      "name": "Lo-u标尺_01",
      "primitives": [
        {
          "material": 3,
          "mode": 4,
          "indices": 28,
          "attributes": {
            "NORMAL": 30,
            "POSITION": 29,
            "TEXCOORD_0": 31,
            "TEXCOORD_1": 32
          }
        }
      ]
    }
  ],
  "buffers": [
    {
      "byteLength": 170991,
      "uri": "OD1NOQJWQGE7UHQQT1QONV5OD2Y1W2MWU.bin"
    }
  ],
  "bufferViews": [
    {
      "buffer": 0,
      "byteLength": 116,
      "byteOffset": 0
    },
    {
      "buffer": 0,
      "byteLength": 192,
      "byteOffset": 228
    },
    {
      "buffer": 0,
      "byteLength": 512,
      "byteOffset": 420
    },
    {
      "buffer": 0,
      "byteLength": 144,
      "byteOffset": 948
    },
    {
      "buffer": 0,
      "target": 34963,
      "byteLength": 1294,
      "byteOffset": 1092
    },
    {
      "buffer": 0,
      "target": 34962,
      "byteLength": 4656,
      "byteOffset": 2540
    },
    {
      "buffer": 0,
      "target": 34962,
      "byteLength": 4884,
      "byteOffset": 7196
    },
    {
      "buffer": 0,
      "target": 34962,
      "byteLength": 6368,
      "byteOffset": 12112
    },
    {
      "buffer": 0,
      "target": 34962,
      "byteLength": 3248,
      "byteOffset": 18480
    },
    {
      "buffer": 0,
      "target": 34962,
      "byteLength": 3192,
      "byteOffset": 21736
    },
    {
      "buffer": 0,
      "target": 34963,
      "byteLength": 1642,
      "byteOffset": 24928
    },
    {
      "buffer": 0,
      "target": 34962,
      "byteLength": 8196,
      "byteOffset": 26632
    },
    {
      "buffer": 0,
      "target": 34962,
      "byteLength": 8352,
      "byteOffset": 34828
    },
    {
      "buffer": 0,
      "target": 34962,
      "byteLength": 11008,
      "byteOffset": 43112
    },
    {
      "buffer": 0,
      "target": 34962,
      "byteLength": 5584,
      "byteOffset": 54120
    },
    {
      "buffer": 0,
      "target": 34962,
      "byteLength": 5432,
      "byteOffset": 59712
    },
    {
      "buffer": 0,
      "target": 34963,
      "byteLength": 620,
      "byteOffset": 65144
    },
    {
      "buffer": 0,
      "target": 34962,
      "byteLength": 2976,
      "byteOffset": 65876
    },
    {
      "buffer": 0,
      "target": 34962,
      "byteLength": 3252,
      "byteOffset": 68852
    },
    {
      "buffer": 0,
      "target": 34962,
      "byteLength": 3936,
      "byteOffset": 72168
    },
    {
      "buffer": 0,
      "target": 34962,
      "byteLength": 2136,
      "byteOffset": 76104
    },
    {
      "buffer": 0,
      "target": 34962,
      "byteLength": 2000,
      "byteOffset": 78248
    },
    {
      "buffer": 0,
      "target": 34963,
      "byteLength": 826,
      "byteOffset": 80248
    },
    {
      "buffer": 0,
      "target": 34962,
      "byteLength": 3888,
      "byteOffset": 81196
    },
    {
      "buffer": 0,
      "target": 34962,
      "byteLength": 4128,
      "byteOffset": 85084
    },
    {
      "buffer": 0,
      "target": 34962,
      "byteLength": 5232,
      "byteOffset": 89260
    },
    {
      "buffer": 0,
      "target": 34962,
      "byteLength": 2744,
      "byteOffset": 94492
    },
    {
      "buffer": 0,
      "target": 34962,
      "byteLength": 2680,
      "byteOffset": 97188
    },
    {
      "buffer": 0,
      "target": 34963,
      "byteLength": 8452,
      "byteOffset": 99868
    },
    {
      "buffer": 0,
      "target": 34962,
      "byteLength": 18396,
      "byteOffset": 108352
    },
    {
      "buffer": 0,
      "target": 34962,
      "byteLength": 18480,
      "byteOffset": 126748
    },
    {
      "buffer": 0,
      "target": 34962,
      "byteLength": 12248,
      "byteOffset": 145220
    },
    {
      "buffer": 0,
      "target": 34962,
      "byteLength": 12392,
      "byteOffset": 157468
    },
    {
      "buffer": 0,
      "target": 34963,
      "byteLength": 12,
      "byteOffset": 169784
    },
    {
      "buffer": 0,
      "target": 34962,
      "byteLength": 132,
      "byteOffset": 169768
    },
    {
      "buffer": 0,
      "target": 34962,
      "byteLength": 48,
      "byteOffset": 169912
    },
    {
      "buffer": 0,
      "target": 34962,
      "byteLength": 208,
      "byteOffset": 169864
    },
    {
      "buffer": 0,
      "target": 34962,
      "byteLength": 32,
      "byteOffset": 170008
    },
    {
      "buffer": 0,
      "target": 34962,
      "byteLength": 128,
      "byteOffset": 169960
    }
  ],
  "accessors": [
    {
      "componentType": 5126,
      "type": "SCALAR",
      "bufferView": 0,
      "byteOffset": 0,
      "byteType": 439,
      "count": 29,
      "min": [
        0.0
      ],
      "max": [
        0.833333313465118
      ]
    },
    {
      "componentType": 5126,
      "type": "VEC4",
      "bufferView": 1,
      "byteOffset": 0,
      "byteType": 1157,
      "count": 12
    },
    {
      "componentType": 5126,
      "type": "VEC4",
      "bufferView": 2,
      "byteOffset": 0,
      "byteType": 246,
      "count": 32
    },
    {
      "componentType": 5126,
      "type": "VEC4",
      "bufferView": 3,
      "byteOffset": 0,
      "byteType": 1153,
      "count": 9
    },
    {
      "componentType": 5123,
      "type": "SCALAR",
      "bufferView": 4,
      "byteOffset": 0,
      "byteType": 1098,
      "count": 647
    },
    {
      "componentType": 5126,
      "type": "VEC3",
      "bufferView": 5,
      "byteOffset": 0,
      "byteType": 1995,
      "count": 388,
      "min": [
        -30.2751617431641,
        -60.9500122070313,
        -0.100006103515625
      ],
      "max": [
        30.2751617431641,
        59.1499938964844,
        199.900024414063
      ]
    },
    {
      "componentType": 5126,
      "type": "VEC3",
      "bufferView": 6,
      "byteOffset": 0,
      "byteType": 1901,
      "count": 407
    },
    {
      "componentType": 5126,
      "type": "VEC4",
      "bufferView": 7,
      "byteOffset": 0,
      "byteType": 1873,
      "count": 398
    },
    {
      "componentType": 5126,
      "type": "VEC2",
      "bufferView": 8,
      "byteOffset": 0,
      "byteType": 1522,
      "count": 406
    },
    {
      "componentType": 5126,
      "type": "VEC2",
      "bufferView": 9,
      "byteOffset": 0,
      "byteType": 1749,
      "count": 399
    },
    {
      "componentType": 5123,
      "type": "SCALAR",
      "bufferView": 10,
      "byteOffset": 0,
      "byteType": 1835,
      "count": 821
    },
    {
      "componentType": 5126,
      "type": "VEC3",
      "bufferView": 11,
      "byteOffset": 0,
      "byteType": 317,
      "count": 683,
      "min": [
        -56.5782203674316,
        -3.69989395141602,
        -99.900016784668
      ],
      "max": [
        1.1444091796875E-05,
        -0.0999984741210938,
        99.9000244140625
      ]
    },
    {
      "componentType": 5126,
      "type": "VEC3",
      "bufferView": 12,
      "byteOffset": 0,
      "byteType": 586,
      "count": 696
    },
    {
      "componentType": 5126,
      "type": "VEC4",
      "bufferView": 13,
      "byteOffset": 0,
      "byteType": 1295,
      "count": 688
    },
    {
      "componentType": 5126,
      "type": "VEC2",
      "bufferView": 14,
      "byteOffset": 0,
      "byteType": 378,
      "count": 698
    },
    {
      "componentType": 5126,
      "type": "VEC2",
      "bufferView": 15,
      "byteOffset": 0,
      "byteType": 1697,
      "count": 679
    },
    {
      "componentType": 5123,
      "type": "SCALAR",
      "bufferView": 16,
      "byteOffset": 0,
      "byteType": 1155,
      "count": 310
    },
    {
      "componentType": 5126,
      "type": "VEC3",
      "bufferView": 17,
      "byteOffset": 0,
      "byteType": 1521,
      "count": 248,
      "min": [
        -28.2891120910645,
        -7.62939453125E-06,
        -99.900016784668
      ],
      "max": [
        0.0,
        2.00001525878906,
        99.9000091552734
      ]
    },
    {
      "componentType": 5126,
      "type": "VEC3",
      "bufferView": 18,
      "byteOffset": 0,
      "byteType": 1993,
      "count": 271
    },
    {
      "componentType": 5126,
      "type": "VEC4",
      "bufferView": 19,
      "byteOffset": 0,
      "byteType": 961,
      "count": 246
    },
    {
      "componentType": 5126,
      "type": "VEC2",
      "bufferView": 20,
      "byteOffset": 0,
      "byteType": 1403,
      "count": 267
    },
    {
      "componentType": 5126,
      "type": "VEC2",
      "bufferView": 21,
      "byteOffset": 0,
      "byteType": 665,
      "count": 250
    },
    {
      "componentType": 5123,
      "type": "SCALAR",
      "bufferView": 22,
      "byteOffset": 0,
      "byteType": 1319,
      "count": 413
    },
    {
      "componentType": 5126,
      "type": "VEC3",
      "bufferView": 23,
      "byteOffset": 0,
      "byteType": 453,
      "count": 324,
      "min": [
        -3.814697265625E-06,
        -7.62939453125E-06,
        -99.9000015258789
      ],
      "max": [
        28.2891082763672,
        2.00001525878906,
        99.9000091552734
      ]
    },
    {
      "componentType": 5126,
      "type": "VEC3",
      "bufferView": 24,
      "byteOffset": 0,
      "byteType": 1069,
      "count": 344
    },
    {
      "componentType": 5126,
      "type": "VEC4",
      "bufferView": 25,
      "byteOffset": 0,
      "byteType": 817,
      "count": 327
    },
    {
      "componentType": 5126,
      "type": "VEC2",
      "bufferView": 26,
      "byteOffset": 0,
      "byteType": 1735,
      "count": 343
    },
    {
      "componentType": 5126,
      "type": "VEC2",
      "bufferView": 27,
      "byteOffset": 0,
      "byteType": 1635,
      "count": 335
    },
    {
      "componentType": 5123,
      "type": "SCALAR",
      "bufferView": 28,
      "byteOffset": 0,
      "byteType": 1790,
      "count": 4226
    },
    {
      "componentType": 5126,
      "type": "VEC3",
      "bufferView": 29,
      "byteOffset": 0,
      "byteType": 1137,
      "count": 1533,
      "min": [
        -24.5010776519775,
        -7.62939453125E-06,
        -2.288818359375E-05
      ],
      "max": [
        24.5010757446289,
        96.1449813842773,
        196.310592651367
      ]
    },
    {
      "componentType": 5126,
      "type": "VEC3",
      "bufferView": 30,
      "byteOffset": 0,
      "byteType": 1890,
      "count": 1540
    },
    {
      "componentType": 5126,
      "type": "VEC2",
      "bufferView": 31,
      "byteOffset": 0,
      "byteType": 915,
      "count": 1531
    },
    {
      "componentType": 5126,
      "type": "VEC2",
      "bufferView": 32,
      "byteOffset": 0,
      "byteType": 647,
      "count": 1549
    },
    {
      "componentType": 5123,
      "type": "SCALAR",
      "bufferView": 33,
      "byteOffset": 0,
      "byteType": 574,
      "count": 6
    },
    {
      "componentType": 5126,
      "type": "VEC3",
      "bufferView": 34,
      "byteOffset": 0,
      "byteType": 1288,
      "count": 11,
      "min": [
        -18.040979385376,
        -3.83930587768555,
        93.1175384521484
      ],
      "max": [
        -5.92012405395508,
        -2.78850936889648,
        96.9839019775391
      ]
    },
    {
      "componentType": 5126,
      "type": "VEC3",
      "bufferView": 35,
      "byteOffset": 0,
      "byteType": 1710,
      "count": 4
    },
    {
      "componentType": 5126,
      "type": "VEC4",
      "bufferView": 36,
      "byteOffset": 0,
      "byteType": 1757,
      "count": 13
    },
    {
      "componentType": 5126,
      "type": "VEC2",
      "bufferView": 37,
      "byteOffset": 0,
      "byteType": 1130,
      "count": 4
    },
    {
      "componentType": 5126,
      "type": "VEC2",
      "bufferView": 38,
      "byteOffset": 0,
      "byteType": 353,
      "count": 16
    }
  ],
  "nodes": [
    {
      "name": "RootNode",
      "translation": [
        0.0,
        0.0,
        0.0
      ],
      "rotation": [
        0.0,
        0.0,
        0.0,
        1.0
      ],
      "scale": [
        1.0,
        1.0,
        1.0
      ],
      "children": [
        1,
        2,
        3,
        4,
        5,
        6
      ]
    },
    {
      "name": "BasePoint",
      "translation": [
        0.00724052451550961,
        0.0203594155609608,
        0.488136887550354
      ],
      "rotation": [
        2.1855694143369E-08,
        0.0,
        0.0,
        1.0
      ],
      "scale": [
        0.00999999977648258,
        0.00999999977648258,
        0.00999999977648258
      ]
    },
    {
      "name": "Lo-BODY_01",
      "translation": [
        0.0,
        0.0,
        0.0
      ],
      "rotation": [
        -0.70710676908493,
        0.0,
        0.0,
        0.70710676908493
      ],
      "scale": [
        0.00999999977648258,
        0.00999999977648258,
        0.00999999977648258
      ],
      "mesh": 0
    },
    {
      "name": "Lo-u标尺_01",
      "translation": [
        0.0,
        0.0203594155609608,
        0.488136887550354
      ],
      "rotation": [
        -0.70710676908493,
        0.0,
        0.0,
        0.70710676908493
      ],
      "scale": [
        0.00999999977648258,
        0.00999999977648258,
        0.00999999977648258
      ],
      "mesh": 4
    },
    {
      "name": "Lo-qianmen_01",
      "translation": [
        0.291386663913727,
        1.00000011920929,
        0.608500063419342
      ],
      "rotation": [
        -0.70710676908493,
        0.0,
        0.0,
        0.70710676908493
      ],
      "scale": [
        0.00999999977648258,
        0.00999999977648258,
        0.00999999977648258
      ],
      "mesh": 1
    },
    {
      "name": "Lo-houmenA_01",
      "translation": [
        0.291386693716049,
        1.00000011920929,
        -0.591499805450439
      ],
      "rotation": [
        -0.70710676908493,
        0.0,
        0.0,
        0.70710676908493
      ],
      "scale": [
        0.00999999977648258,
        0.00999999977648258,
        0.00999999977648258
      ],
      "mesh": 2
    },
    {
      "name": "Lo-houmenB_01",
      "translation": [
        -0.274395495653152,
        1.0,
        -0.591499805450439
      ],
      "rotation": [
        -0.70710676908493,
        0.0,
        0.0,
        0.70710676908493
      ],
      "scale": [
        0.00999999977648258,
        0.00999999977648258,
        0.00999999977648258
      ],
      "mesh": 3
    }
  ],
  "animations": [
    {
      "name": "OpenDoor",
      "channels": [
        {
          "sampler": 0,
          "target": {
            "node": 4,
            "path": "rotation"
          }
        },
        {
          "sampler": 1,
          "target": {
            "node": 5,
            "path": "rotation"
          }
        },
        {
          "sampler": 2,
          "target": {
            "node": 6,
            "path": "rotation"
          }
        }
      ],
      "samplers": [
        {
          "input": 0,
          "interpolation": "LINEAR",
          "output": 1
        },
        {
          "input": 0,
          "interpolation": "LINEAR",
          "output": 2
        },
        {
          "input": 0,
          "interpolation": "LINEAR",
          "output": 3
        }
      ]
    }
  ],
  "asset": {
    "generator": "FBX2glTF",
    "version": "2.0"
  },
  "scene": 0,
  "scenes": [
    {
      "name": "Root Scene",
      "nodes": [
        0
      ]
    }
  ],
  "samplers": [
    {}
  ]
}
