{
  "materials": [
    {
      "name": "Std_huawei_机柜42U.jpgLightingMap_20170505设备分类创建_机柜_HUAWEI_HUAWEI_华为机柜_简模_1.bmp",
      "occlusionTexture": {
        "index": 0,
        "texCoord": 1
      },
      "pbrMetallicRoughness": {
        "baseColorTexture": {
          "index": 1,
          "texCoord": 0
        },
        "baseColorFactor": [
          1.0,
          1.0,
          1.0,
          1.0
        ],
        "metallicFactor": 0,
        "roughnessFactor": 0.96
      },
      "alphaMode": "OPAQUE"
    },
    {
      "name": "Std_huawei_机柜42U.jpg",
      "pbrMetallicRoughness": {
        "baseColorTexture": {
          "index": 1,
          "texCoord": 0
        },
        "baseColorFactor": [
          1.0,
          1.0,
          1.0,
          1.0
        ],
        "metallicFactor": 0,
        "roughnessFactor": 0.96
      },
      "alphaMode": "OPAQUE"
    },
    {
      "name": "Std_LOGO.png_alpha",
      "pbrMetallicRoughness": {
        "baseColorTexture": {
          "index": 2,
          "texCoord": 0
        },
        "baseColorFactor": [
          1.0,
          1.0,
          1.0,
          1.0
        ],
        "metallicFactor": 0,
        "roughnessFactor": 1
      },
      "alphaMode": "BLEND"
    }
  ],
  "images": [
    {
      "uri": "WST8UCCJ0SMQW2MQD3OOAJ149PKOWJ6Q3.jpg"
    },
    {
      "uri": "2S5ZW7TUD7G81C23O18XQP2O92STTZK48.jpg"
    },
    {
      "uri": "NIMT08E9DCTO316G8UIMO01O32QDFUUR7.png"
    }
  ],
  "textures": [
    {
      "name": "LightingMap_20170505设备分类创建_机柜_HUAWEI_HUAWEI_华为机柜_简模_1_f_bmp.jpg",
      "sampler": 0,
      "source": 0
    },
    {
      "name": "smd_2.jpg",
      "sampler": 0,
      "source": 1
    },
    {
      "name": "smd_4.png",
      "sampler": 0,
      "source": 2
    }
  ],
  "meshes": [
    {
      "name": "Lo-BODY_01",
      "primitives": [
        {
          "material": 0,
          "mode": 4,
          "indices": 4,
          "attributes": {
            "COLOR_0": 7,
            "NORMAL": 6,
            "POSITION": 5,
            "TEXCOORD_0": 8,
            "TEXCOORD_1": 9
          }
        }
      ]
    },
    {
      "name": "Lo-qianmen_01",
      "primitives": [
        {
          "material": 1,
          "mode": 4,
          "indices": 10,
          "attributes": {
            "COLOR_0": 13,
            "NORMAL": 12,
            "POSITION": 11,
            "TEXCOORD_0": 14,
            "TEXCOORD_1": 15
          }
        },
        {
          "material": 2,
          "mode": 4,
          "indices": 28,
          "attributes": {
            "COLOR_0": 31,
            "NORMAL": 30,
            "POSITION": 29,
            "TEXCOORD_0": 32,
            "TEXCOORD_1": 33
          }
        }
      ]
    },
    {
      "name": "Lo-houmenA_01",
      "primitives": [
        {
          "material": 1,
          "mode": 4,
          "indices": 16,
          "attributes": {
            "COLOR_0": 19,
            "NORMAL": 18,
            "POSITION": 17,
            "TEXCOORD_0": 20,
            "TEXCOORD_1": 21
          }
        }
      ]
    },
    {
      "name": "Lo-houmenB_01",
      "primitives": [
        {
          "material": 1,
          "mode": 4,
          "indices": 22,
          "attributes": {
            "COLOR_0": 25,
            "NORMAL": 24,
            "POSITION": 23,
            "TEXCOORD_0": 26,
            "TEXCOORD_1": 27
          }
        }
      ]
    }
  ],
  "buffers": [
    {
      "byteLength": 101103,
      "uri": "US41T0QOU3V4WT1Q171E81CYF7I2A8UYO.bin"
    }
  ],
  "bufferViews": [
    {
      "buffer": 0,
      "byteLength": 116,
      "byteOffset": 0
    },
    {
      "buffer": 0,
      "byteLength": 192,
      "byteOffset": 228
    },
    {
      "buffer": 0,
      "byteLength": 400,
      "byteOffset": 420
    },
    {
      "buffer": 0,
      "byteLength": 256,
      "byteOffset": 836
    },
    {
      "buffer": 0,
      "target": 34963,
      "byteLength": 1294,
      "byteOffset": 1092
    },
    {
      "buffer": 0,
      "target": 34962,
      "byteLength": 4656,
      "byteOffset": 2540
    },
    {
      "buffer": 0,
      "target": 34962,
      "byteLength": 4956,
      "byteOffset": 7196
    },
    {
      "buffer": 0,
      "target": 34962,
      "byteLength": 6272,
      "byteOffset": 12208
    },
    {
      "buffer": 0,
      "target": 34962,
      "byteLength": 3320,
      "byteOffset": 18480
    },
    {
      "buffer": 0,
      "target": 34962,
      "byteLength": 3120,
      "byteOffset": 21808
    },
    {
      "buffer": 0,
      "target": 34963,
      "byteLength": 1658,
      "byteOffset": 24928
    },
    {
      "buffer": 0,
      "target": 34962,
      "byteLength": 8100,
      "byteOffset": 26728
    },
    {
      "buffer": 0,
      "target": 34962,
      "byteLength": 8460,
      "byteOffset": 34828
    },
    {
      "buffer": 0,
      "target": 34962,
      "byteLength": 10864,
      "byteOffset": 43256
    },
    {
      "buffer": 0,
      "target": 34962,
      "byteLength": 5568,
      "byteOffset": 54120
    },
    {
      "buffer": 0,
      "target": 34962,
      "byteLength": 5448,
      "byteOffset": 59696
    },
    {
      "buffer": 0,
      "target": 34963,
      "byteLength": 620,
      "byteOffset": 65144
    },
    {
      "buffer": 0,
      "target": 34962,
      "byteLength": 2976,
      "byteOffset": 65876
    },
    {
      "buffer": 0,
      "target": 34962,
      "byteLength": 3252,
      "byteOffset": 68852
    },
    {
      "buffer": 0,
      "target": 34962,
      "byteLength": 3936,
      "byteOffset": 72168
    },
    {
      "buffer": 0,
      "target": 34962,
      "byteLength": 2080,
      "byteOffset": 76104
    },
    {
      "buffer": 0,
      "target": 34962,
      "byteLength": 2056,
      "byteOffset": 78192
    },
    {
      "buffer": 0,
      "target": 34963,
      "byteLength": 826,
      "byteOffset": 80248
    },
    {
      "buffer": 0,
      "target": 34962,
      "byteLength": 3888,
      "byteOffset": 81196
    },
    {
      "buffer": 0,
      "target": 34962,
      "byteLength": 4200,
      "byteOffset": 85084
    },
    {
      "buffer": 0,
      "target": 34962,
      "byteLength": 5136,
      "byteOffset": 89356
    },
    {
      "buffer": 0,
      "target": 34962,
      "byteLength": 2816,
      "byteOffset": 94492
    },
    {
      "buffer": 0,
      "target": 34962,
      "byteLength": 2608,
      "byteOffset": 97260
    },
    {
      "buffer": 0,
      "target": 34963,
      "byteLength": 32,
      "byteOffset": 99868
    },
    {
      "buffer": 0,
      "target": 34962,
      "byteLength": 48,
      "byteOffset": 100012
    },
    {
      "buffer": 0,
      "target": 34962,
      "byteLength": 204,
      "byteOffset": 99928
    },
    {
      "buffer": 0,
      "target": 34962,
      "byteLength": 64,
      "byteOffset": 100200
    },
    {
      "buffer": 0,
      "target": 34962,
      "byteLength": 120,
      "byteOffset": 100040
    },
    {
      "buffer": 0,
      "target": 34962,
      "byteLength": 32,
      "byteOffset": 100168
    }
  ],
  "accessors": [
    {
      "componentType": 5126,
      "type": "SCALAR",
      "bufferView": 0,
      "byteOffset": 0,
      "byteType": 876,
      "count": 29,
      "min": [
        0.0
      ],
      "max": [
        0.833333313465118
      ]
    },
    {
      "componentType": 5126,
      "type": "VEC4",
      "bufferView": 1,
      "byteOffset": 0,
      "byteType": 1947,
      "count": 12
    },
    {
      "componentType": 5126,
      "type": "VEC4",
      "bufferView": 2,
      "byteOffset": 0,
      "byteType": 1954,
      "count": 25
    },
    {
      "componentType": 5126,
      "type": "VEC4",
      "bufferView": 3,
      "byteOffset": 0,
      "byteType": 405,
      "count": 16
    },
    {
      "componentType": 5123,
      "type": "SCALAR",
      "bufferView": 4,
      "byteOffset": 0,
      "byteType": 1421,
      "count": 647
    },
    {
      "componentType": 5126,
      "type": "VEC3",
      "bufferView": 5,
      "byteOffset": 0,
      "byteType": 211,
      "count": 388,
      "min": [
        -30.2751617431641,
        -60.9500122070313,
        -0.100006103515625
      ],
      "max": [
        30.2751617431641,
        59.1499938964844,
        199.900024414063
      ]
    },
    {
      "componentType": 5126,
      "type": "VEC3",
      "bufferView": 6,
      "byteOffset": 0,
      "byteType": 759,
      "count": 413
    },
    {
      "componentType": 5126,
      "type": "VEC4",
      "bufferView": 7,
      "byteOffset": 0,
      "byteType": 1977,
      "count": 392
    },
    {
      "componentType": 5126,
      "type": "VEC2",
      "bufferView": 8,
      "byteOffset": 0,
      "byteType": 1926,
      "count": 415
    },
    {
      "componentType": 5126,
      "type": "VEC2",
      "bufferView": 9,
      "byteOffset": 0,
      "byteType": 1633,
      "count": 390
    },
    {
      "componentType": 5123,
      "type": "SCALAR",
      "bufferView": 10,
      "byteOffset": 0,
      "byteType": 365,
      "count": 829
    },
    {
      "componentType": 5126,
      "type": "VEC3",
      "bufferView": 11,
      "byteOffset": 0,
      "byteType": 1029,
      "count": 675,
      "min": [
        -56.5782203674316,
        -3.69989395141602,
        -99.900016784668
      ],
      "max": [
        1.1444091796875E-05,
        -0.0999984741210938,
        99.9000244140625
      ]
    },
    {
      "componentType": 5126,
      "type": "VEC3",
      "bufferView": 12,
      "byteOffset": 0,
      "byteType": 461,
      "count": 705
    },
    {
      "componentType": 5126,
      "type": "VEC4",
      "bufferView": 13,
      "byteOffset": 0,
      "byteType": 983,
      "count": 679
    },
    {
      "componentType": 5126,
      "type": "VEC2",
      "bufferView": 14,
      "byteOffset": 0,
      "byteType": 475,
      "count": 696
    },
    {
      "componentType": 5126,
      "type": "VEC2",
      "bufferView": 15,
      "byteOffset": 0,
      "byteType": 1209,
      "count": 681
    },
    {
      "componentType": 5123,
      "type": "SCALAR",
      "bufferView": 16,
      "byteOffset": 0,
      "byteType": 453,
      "count": 310
    },
    {
      "componentType": 5126,
      "type": "VEC3",
      "bufferView": 17,
      "byteOffset": 0,
      "byteType": 321,
      "count": 248,
      "min": [
        -28.2891120910645,
        -7.62939453125E-06,
        -99.900016784668
      ],
      "max": [
        0.0,
        2.00001525878906,
        99.9000091552734
      ]
    },
    {
      "componentType": 5126,
      "type": "VEC3",
      "bufferView": 18,
      "byteOffset": 0,
      "byteType": 1902,
      "count": 271
    },
    {
      "componentType": 5126,
      "type": "VEC4",
      "bufferView": 19,
      "byteOffset": 0,
      "byteType": 503,
      "count": 246
    },
    {
      "componentType": 5126,
      "type": "VEC2",
      "bufferView": 20,
      "byteOffset": 0,
      "byteType": 1694,
      "count": 260
    },
    {
      "componentType": 5126,
      "type": "VEC2",
      "bufferView": 21,
      "byteOffset": 0,
      "byteType": 775,
      "count": 257
    },
    {
      "componentType": 5123,
      "type": "SCALAR",
      "bufferView": 22,
      "byteOffset": 0,
      "byteType": 1653,
      "count": 413
    },
    {
      "componentType": 5126,
      "type": "VEC3",
      "bufferView": 23,
      "byteOffset": 0,
      "byteType": 1641,
      "count": 324,
      "min": [
        -3.814697265625E-06,
        -7.62939453125E-06,
        -99.9000015258789
      ],
      "max": [
        28.2891082763672,
        2.00001525878906,
        99.9000091552734
      ]
    },
    {
      "componentType": 5126,
      "type": "VEC3",
      "bufferView": 24,
      "byteOffset": 0,
      "byteType": 210,
      "count": 350
    },
    {
      "componentType": 5126,
      "type": "VEC4",
      "bufferView": 25,
      "byteOffset": 0,
      "byteType": 1711,
      "count": 321
    },
    {
      "componentType": 5126,
      "type": "VEC2",
      "bufferView": 26,
      "byteOffset": 0,
      "byteType": 774,
      "count": 352
    },
    {
      "componentType": 5126,
      "type": "VEC2",
      "bufferView": 27,
      "byteOffset": 0,
      "byteType": 1109,
      "count": 326
    },
    {
      "componentType": 5123,
      "type": "SCALAR",
      "bufferView": 28,
      "byteOffset": 0,
      "byteType": 860,
      "count": 16
    },
    {
      "componentType": 5126,
      "type": "VEC3",
      "bufferView": 29,
      "byteOffset": 0,
      "byteType": 1356,
      "count": 4,
      "min": [
        -18.040979385376,
        -3.83930587768555,
        93.1175384521484
      ],
      "max": [
        -5.92012405395508,
        -2.78850936889648,
        96.9839019775391
      ]
    },
    {
      "componentType": 5126,
      "type": "VEC3",
      "bufferView": 30,
      "byteOffset": 0,
      "byteType": 673,
      "count": 17
    },
    {
      "componentType": 5126,
      "type": "VEC4",
      "bufferView": 31,
      "byteOffset": 0,
      "byteType": 542,
      "count": 4
    },
    {
      "componentType": 5126,
      "type": "VEC2",
      "bufferView": 32,
      "byteOffset": 0,
      "byteType": 775,
      "count": 15
    },
    {
      "componentType": 5126,
      "type": "VEC2",
      "bufferView": 33,
      "byteOffset": 0,
      "byteType": 1530,
      "count": 4
    }
  ],
  "nodes": [
    {
      "name": "RootNode",
      "translation": [
        0.0,
        0.0,
        0.0
      ],
      "rotation": [
        0.0,
        0.0,
        0.0,
        1.0
      ],
      "scale": [
        1.0,
        1.0,
        1.0
      ],
      "children": [
        1,
        2,
        3,
        4,
        5
      ]
    },
    {
      "name": "BasePoint",
      "translation": [
        0.00724052451550961,
        0.0203594155609608,
        0.488136887550354
      ],
      "rotation": [
        2.1855694143369E-08,
        0.0,
        0.0,
        1.0
      ],
      "scale": [
        0.00999999977648258,
        0.00999999977648258,
        0.00999999977648258
      ]
    },
    {
      "name": "Lo-BODY_01",
      "translation": [
        0.0,
        0.0,
        0.0
      ],
      "rotation": [
        -0.70710676908493,
        0.0,
        0.0,
        0.70710676908493
      ],
      "scale": [
        0.00999999977648258,
        0.00999999977648258,
        0.00999999977648258
      ],
      "mesh": 0
    },
    {
      "name": "Lo-qianmen_01",
      "translation": [
        0.291386663913727,
        1.00000011920929,
        0.608500063419342
      ],
      "rotation": [
        -0.70710676908493,
        0.0,
        0.0,
        0.70710676908493
      ],
      "scale": [
        0.00999999977648258,
        0.00999999977648258,
        0.00999999977648258
      ],
      "mesh": 1
    },
    {
      "name": "Lo-houmenA_01",
      "translation": [
        0.291386693716049,
        1.00000011920929,
        -0.591499805450439
      ],
      "rotation": [
        -0.70710676908493,
        0.0,
        0.0,
        0.70710676908493
      ],
      "scale": [
        0.00999999977648258,
        0.00999999977648258,
        0.00999999977648258
      ],
      "mesh": 2
    },
    {
      "name": "Lo-houmenB_01",
      "translation": [
        -0.274395495653152,
        1.0,
        -0.591499805450439
      ],
      "rotation": [
        -0.70710676908493,
        0.0,
        0.0,
        0.70710676908493
      ],
      "scale": [
        0.00999999977648258,
        0.00999999977648258,
        0.00999999977648258
      ],
      "mesh": 3
    }
  ],
  "animations": [
    {
      "name": "OpenDoor",
      "channels": [
        {
          "sampler": 0,
          "target": {
            "node": 3,
            "path": "rotation"
          }
        },
        {
          "sampler": 1,
          "target": {
            "node": 4,
            "path": "rotation"
          }
        },
        {
          "sampler": 2,
          "target": {
            "node": 5,
            "path": "rotation"
          }
        }
      ],
      "samplers": [
        {
          "input": 0,
          "interpolation": "LINEAR",
          "output": 1
        },
        {
          "input": 0,
          "interpolation": "LINEAR",
          "output": 2
        },
        {
          "input": 0,
          "interpolation": "LINEAR",
          "output": 3
        }
      ]
    }
  ],
  "asset": {
    "generator": "FBX2glTF",
    "version": "2.0"
  },
  "scene": 0,
  "scenes": [
    {
      "name": "Root Scene",
      "nodes": [
        0
      ]
    }
  ],
  "samplers": [
    {}
  ]
}
